<?xml version="1.0" encoding="UTF-8"?>
<!DOCTYPE svg PUBLIC "-//W3C//DTD SVG 1.1//EN" "http://www.w3.org/Graphics/SVG/1.1/DTD/svg11.dtd">
<svg version="1.2" width="50mm" height="52.2mm" viewBox="-1 0 5000 5220" preserveAspectRatio="xMidYMid" fill-rule="evenodd" stroke-width="28.222" stroke-linejoin="round" xmlns="http://www.w3.org/2000/svg" xmlns:ooo="http://xml.openoffice.org/svg/export" xmlns:xlink="http://www.w3.org/1999/xlink" xmlns:presentation="http://sun.com/xmlns/staroffice/presentation" xmlns:smil="http://www.w3.org/2001/SMIL20/" xmlns:anim="urn:oasis:names:tc:opendocument:xmlns:animation:1.0" xml:space="preserve">
 <defs class="ClipPathGroup">
  <clipPath id="presentation_clip_path" clipPathUnits="userSpaceOnUse">
   <rect x="-1" y="0" width="5000" height="5220"/>
  </clipPath>
  <clipPath id="presentation_clip_path_shrink" clipPathUnits="userSpaceOnUse">
   <rect x="4" y="5" width="4990" height="5210"/>
  </clipPath>
 </defs>
 <defs class="TextShapeIndex">
  <g ooo:slide="id1" ooo:id-list="id3 id4 id5 id6 id7 id8 id9 id10 id11 id12 id13 id14 id15 id16 id17 id18"/>
 </defs>
 <defs class="EmbeddedBulletChars">
  <g id="bullet-char-template(57356)" transform="scale(0.00048828125,-0.00048828125)">
   <path d="M 580,1141 L 1163,571 580,0 -4,571 580,1141 Z"/>
  </g>
  <g id="bullet-char-template(57354)" transform="scale(0.00048828125,-0.00048828125)">
   <path d="M 8,1128 L 1137,1128 1137,0 8,0 8,1128 Z"/>
  </g>
  <g id="bullet-char-template(10146)" transform="scale(0.00048828125,-0.00048828125)">
   <path d="M 174,0 L 602,739 174,1481 1456,739 174,0 Z M 1358,739 L 309,1346 659,739 1358,739 Z"/>
  </g>
  <g id="bullet-char-template(10132)" transform="scale(0.00048828125,-0.00048828125)">
   <path d="M 2015,739 L 1276,0 717,0 1260,543 174,543 174,936 1260,936 717,1481 1274,1481 2015,739 Z"/>
  </g>
  <g id="bullet-char-template(10007)" transform="scale(0.00048828125,-0.00048828125)">
   <path d="M 0,-2 C -7,14 -16,27 -25,37 L 356,567 C 262,823 215,952 215,954 215,979 228,992 255,992 264,992 276,990 289,987 310,991 331,999 354,1012 L 381,999 492,748 772,1049 836,1024 860,1049 C 881,1039 901,1025 922,1006 886,937 835,863 770,784 769,783 710,716 594,584 L 774,223 C 774,196 753,168 711,139 L 727,119 C 717,90 699,76 672,76 641,76 570,178 457,381 L 164,-76 C 142,-110 111,-127 72,-127 30,-127 9,-110 8,-76 1,-67 -2,-52 -2,-32 -2,-23 -1,-13 0,-2 Z"/>
  </g>
  <g id="bullet-char-template(10004)" transform="scale(0.00048828125,-0.00048828125)">
   <path d="M 285,-33 C 182,-33 111,30 74,156 52,228 41,333 41,471 41,549 55,616 82,672 116,743 169,778 240,778 293,778 328,747 346,684 L 369,508 C 377,444 397,411 428,410 L 1163,1116 C 1174,1127 1196,1133 1229,1133 1271,1133 1292,1118 1292,1087 L 1292,965 C 1292,929 1282,901 1262,881 L 442,47 C 390,-6 338,-33 285,-33 Z"/>
  </g>
  <g id="bullet-char-template(9679)" transform="scale(0.00048828125,-0.00048828125)">
   <path d="M 813,0 C 632,0 489,54 383,161 276,268 223,411 223,592 223,773 276,916 383,1023 489,1130 632,1184 813,1184 992,1184 1136,1130 1245,1023 1353,916 1407,772 1407,592 1407,412 1353,268 1245,161 1136,54 992,0 813,0 Z"/>
  </g>
  <g id="bullet-char-template(8226)" transform="scale(0.00048828125,-0.00048828125)">
   <path d="M 346,457 C 273,457 209,483 155,535 101,586 74,649 74,723 74,796 101,859 155,911 209,963 273,989 346,989 419,989 480,963 531,910 582,859 608,796 608,723 608,648 583,586 532,535 482,483 420,457 346,457 Z"/>
  </g>
  <g id="bullet-char-template(8211)" transform="scale(0.00048828125,-0.00048828125)">
   <path d="M -4,459 L 1135,459 1135,606 -4,606 -4,459 Z"/>
  </g>
  <g id="bullet-char-template(61548)" transform="scale(0.00048828125,-0.00048828125)">
   <path d="M 173,740 C 173,903 231,1043 346,1159 462,1274 601,1332 765,1332 928,1332 1067,1274 1183,1159 1299,1043 1357,903 1357,740 1357,577 1299,437 1183,322 1067,206 928,148 765,148 601,148 462,206 346,322 231,437 173,577 173,740 Z"/>
  </g>
 </defs>
 <defs class="TextEmbeddedBitmaps"/>
 <g class="SlideGroup">
  <g>
   <g id="container-id1">
    <g id="id1" class="Slide" clip-path="url(#presentation_clip_path)">
     <g class="Page">
      <g class="com.sun.star.drawing.PolyPolygonShape">
       <g id="id3">
        <rect class="BoundingBox" stroke="none" fill="none" x="-1" y="894" width="4331" height="2986"/>
       </g>
      </g>
      <g class="com.sun.star.drawing.ClosedBezierShape">
       <g id="id4">
        <rect class="BoundingBox" stroke="none" fill="none" x="-1" y="894" width="4329" height="2986"/>
        <path fill="rgb(0,0,0)" stroke="none" d="M 3995,2400 C 4065,2257 4102,2100 4102,1939 4102,1363 3634,895 3059,895 2715,895 2395,1065 2201,1344 2188,1343 2176,1342 2162,1342 1591,1342 1102,1716 946,2251 903,2243 858,2237 820,2237 368,2237 0,2605 0,3057 0,3510 368,3878 820,3878 902,3878 970,3811 970,3728 970,3646 902,3579 820,3579 532,3579 299,3345 299,3057 299,2769 532,2535 820,2535 842,2535 874,2540 910,2547 L 910,2684 C 910,2767 976,2833 1058,2833 1141,2833 1209,2767 1209,2684 L 1209,2444 C 1289,1978 1688,1639 2162,1639 2639,1639 3039,1978 3119,2445 L 3119,2684 C 3119,2767 3185,2833 3267,2833 3350,2833 3418,2767 3418,2684 L 3418,2547 C 3452,2540 3486,2535 3506,2535 3794,2535 4028,2769 4028,3057 4028,3345 3794,3579 3506,3579 3423,3579 3356,3646 3356,3728 3356,3811 3423,3878 3506,3878 3958,3878 4327,3510 4327,3057 4327,2788 4196,2550 3995,2400 Z M 3379,2251 C 3259,1840 2943,1525 2544,1401 2680,1270 2864,1193 3059,1193 3470,1193 3804,1528 3804,1939 3804,2054 3777,2166 3727,2268 3656,2248 3582,2237 3506,2237 3468,2237 3423,2243 3379,2251 Z"/>
       </g>
      </g>
      <g class="com.sun.star.drawing.PolyPolygonShape">
       <g id="id5">
        <rect class="BoundingBox" stroke="none" fill="none" x="2908" y="0" width="302" height="600"/>
       </g>
      </g>
      <g class="com.sun.star.drawing.ClosedBezierShape">
       <g id="id6">
        <rect class="BoundingBox" stroke="none" fill="none" x="2908" y="0" width="302" height="599"/>
        <path fill="rgb(0,0,0)" stroke="none" d="M 3059,597 C 3141,597 3208,530 3208,449 L 3208,149 C 3208,67 3141,0 3059,0 2975,0 2908,67 2908,149 L 2908,449 C 2908,530 2975,597 3059,597 Z"/>
       </g>
      </g>
      <g class="com.sun.star.drawing.PolyPolygonShape">
       <g id="id7">
        <rect class="BoundingBox" stroke="none" fill="none" x="4399" y="1788" width="601" height="303"/>
       </g>
      </g>
      <g class="com.sun.star.drawing.ClosedBezierShape">
       <g id="id8">
        <rect class="BoundingBox" stroke="none" fill="none" x="4400" y="1789" width="599" height="301"/>
        <path fill="rgb(0,0,0)" stroke="none" d="M 4849,1790 L 4549,1790 C 4467,1790 4400,1856 4400,1939 4400,2022 4467,2088 4549,2088 L 4849,2088 C 4930,2088 4997,2022 4997,1939 4997,1856 4930,1790 4849,1790 Z"/>
       </g>
      </g>
      <g class="com.sun.star.drawing.PolyPolygonShape">
       <g id="id9">
        <rect class="BoundingBox" stroke="none" fill="none" x="3962" y="523" width="514" height="514"/>
       </g>
      </g>
      <g class="com.sun.star.drawing.ClosedBezierShape">
       <g id="id10">
        <rect class="BoundingBox" stroke="none" fill="none" x="3962" y="524" width="512" height="512"/>
        <path fill="rgb(0,0,0)" stroke="none" d="M 4112,1034 C 4150,1034 4188,1020 4218,991 L 4430,780 C 4487,721 4487,626 4430,568 4370,510 4276,510 4218,568 L 4007,780 C 3948,837 3948,933 4007,991 4036,1020 4074,1034 4112,1034 Z"/>
       </g>
      </g>
      <g class="com.sun.star.drawing.PolyPolygonShape">
       <g id="id11">
        <rect class="BoundingBox" stroke="none" fill="none" x="1641" y="523" width="515" height="514"/>
       </g>
      </g>
      <g class="com.sun.star.drawing.ClosedBezierShape">
       <g id="id12">
        <rect class="BoundingBox" stroke="none" fill="none" x="1642" y="524" width="512" height="512"/>
        <path fill="rgb(0,0,0)" stroke="none" d="M 1898,991 C 1927,1020 1965,1034 2003,1034 2042,1034 2080,1020 2109,991 2167,933 2167,837 2109,780 L 1898,568 C 1840,510 1745,510 1687,568 1628,626 1628,721 1687,780 L 1898,991 Z"/>
       </g>
      </g>
      <g class="com.sun.star.drawing.PolyPolygonShape">
       <g id="id13">
        <rect class="BoundingBox" stroke="none" fill="none" x="1639" y="3130" width="751" height="2091"/>
       </g>
      </g>
      <g class="com.sun.star.drawing.ClosedBezierShape">
       <g id="id14">
        <rect class="BoundingBox" stroke="none" fill="none" x="1640" y="3131" width="749" height="2090"/>
        <path fill="rgb(0,0,0)" stroke="none" d="M 2275,3135 C 2194,3115 2113,3165 2093,3245 L 1645,5034 C 1625,5114 1674,5195 1754,5215 1766,5219 1778,5220 1790,5220 1857,5220 1918,5175 1935,5107 L 2384,3317 C 2403,3237 2355,3155 2275,3135 Z"/>
       </g>
      </g>
      <g class="com.sun.star.drawing.PolyPolygonShape">
       <g id="id15">
        <rect class="BoundingBox" stroke="none" fill="none" x="2460" y="3578" width="527" height="1197"/>
       </g>
      </g>
      <g class="com.sun.star.drawing.ClosedBezierShape">
       <g id="id16">
        <rect class="BoundingBox" stroke="none" fill="none" x="2460" y="3578" width="526" height="1195"/>
        <path fill="rgb(0,0,0)" stroke="none" d="M 2870,3583 C 2792,3563 2710,3612 2690,3692 L 2465,4587 C 2445,4667 2495,4748 2575,4768 2587,4771 2599,4772 2611,4772 2678,4772 2738,4727 2755,4659 L 2980,3765 C 3000,3684 2951,3603 2870,3583 Z"/>
       </g>
      </g>
      <g class="com.sun.star.drawing.PolyPolygonShape">
       <g id="id17">
        <rect class="BoundingBox" stroke="none" fill="none" x="1043" y="3578" width="527" height="1197"/>
       </g>
      </g>
      <g class="com.sun.star.drawing.ClosedBezierShape">
       <g id="id18">
        <rect class="BoundingBox" stroke="none" fill="none" x="1043" y="3578" width="526" height="1195"/>
        <path fill="rgb(0,0,0)" stroke="none" d="M 1454,3583 C 1375,3563 1293,3612 1273,3692 L 1048,4587 C 1028,4667 1078,4748 1158,4768 1170,4771 1182,4772 1194,4772 1261,4772 1322,4727 1339,4659 L 1563,3765 C 1583,3684 1534,3603 1454,3583 Z"/>
       </g>
      </g>
     </g>
    </g>
   </g>
  </g>
 </g>
</svg>