<?xml version="1.0" encoding="UTF-8"?>
<!DOCTYPE svg PUBLIC "-//W3C//DTD SVG 1.1//EN" "http://www.w3.org/Graphics/SVG/1.1/DTD/svg11.dtd">
<svg version="1.2" width="105.99mm" height="117.99mm" viewBox="5331 6431 10599 11799" preserveAspectRatio="xMidYMid" fill-rule="evenodd" stroke-width="28.222" stroke-linejoin="round" xmlns="http://www.w3.org/2000/svg" xmlns:ooo="http://xml.openoffice.org/svg/export" xmlns:xlink="http://www.w3.org/1999/xlink" xmlns:presentation="http://sun.com/xmlns/staroffice/presentation" xmlns:smil="http://www.w3.org/2001/SMIL20/" xmlns:anim="urn:oasis:names:tc:opendocument:xmlns:animation:1.0" xml:space="preserve">
 <defs class="ClipPathGroup">
  <clipPath id="presentation_clip_path" clipPathUnits="userSpaceOnUse">
   <rect x="5331" y="6431" width="10599" height="11799"/>
  </clipPath>
  <clipPath id="presentation_clip_path_shrink" clipPathUnits="userSpaceOnUse">
   <rect x="5341" y="6442" width="10578" height="11776"/>
  </clipPath>
 </defs>
 <defs class="TextShapeIndex">
  <g ooo:slide="id1" ooo:id-list="id3"/>
 </defs>
 <defs class="EmbeddedBulletChars">
  <g id="bullet-char-template-57356" transform="scale(0.00048828125,-0.00048828125)">
   <path d="M 580,1141 L 1163,571 580,0 -4,571 580,1141 Z"/>
  </g>
  <g id="bullet-char-template-57354" transform="scale(0.00048828125,-0.00048828125)">
   <path d="M 8,1128 L 1137,1128 1137,0 8,0 8,1128 Z"/>
  </g>
  <g id="bullet-char-template-10146" transform="scale(0.00048828125,-0.00048828125)">
   <path d="M 174,0 L 602,739 174,1481 1456,739 174,0 Z M 1358,739 L 309,1346 659,739 1358,739 Z"/>
  </g>
  <g id="bullet-char-template-10132" transform="scale(0.00048828125,-0.00048828125)">
   <path d="M 2015,739 L 1276,0 717,0 1260,543 174,543 174,936 1260,936 717,1481 1274,1481 2015,739 Z"/>
  </g>
  <g id="bullet-char-template-10007" transform="scale(0.00048828125,-0.00048828125)">
   <path d="M 0,-2 C -7,14 -16,27 -25,37 L 356,567 C 262,823 215,952 215,954 215,979 228,992 255,992 264,992 276,990 289,987 310,991 331,999 354,1012 L 381,999 492,748 772,1049 836,1024 860,1049 C 881,1039 901,1025 922,1006 886,937 835,863 770,784 769,783 710,716 594,584 L 774,223 C 774,196 753,168 711,139 L 727,119 C 717,90 699,76 672,76 641,76 570,178 457,381 L 164,-76 C 142,-110 111,-127 72,-127 30,-127 9,-110 8,-76 1,-67 -2,-52 -2,-32 -2,-23 -1,-13 0,-2 Z"/>
  </g>
  <g id="bullet-char-template-10004" transform="scale(0.00048828125,-0.00048828125)">
   <path d="M 285,-33 C 182,-33 111,30 74,156 52,228 41,333 41,471 41,549 55,616 82,672 116,743 169,778 240,778 293,778 328,747 346,684 L 369,508 C 377,444 397,411 428,410 L 1163,1116 C 1174,1127 1196,1133 1229,1133 1271,1133 1292,1118 1292,1087 L 1292,965 C 1292,929 1282,901 1262,881 L 442,47 C 390,-6 338,-33 285,-33 Z"/>
  </g>
  <g id="bullet-char-template-9679" transform="scale(0.00048828125,-0.00048828125)">
   <path d="M 813,0 C 632,0 489,54 383,161 276,268 223,411 223,592 223,773 276,916 383,1023 489,1130 632,1184 813,1184 992,1184 1136,1130 1245,1023 1353,916 1407,772 1407,592 1407,412 1353,268 1245,161 1136,54 992,0 813,0 Z"/>
  </g>
  <g id="bullet-char-template-8226" transform="scale(0.00048828125,-0.00048828125)">
   <path d="M 346,457 C 273,457 209,483 155,535 101,586 74,649 74,723 74,796 101,859 155,911 209,963 273,989 346,989 419,989 480,963 531,910 582,859 608,796 608,723 608,648 583,586 532,535 482,483 420,457 346,457 Z"/>
  </g>
  <g id="bullet-char-template-8211" transform="scale(0.00048828125,-0.00048828125)">
   <path d="M -4,459 L 1135,459 1135,606 -4,606 -4,459 Z"/>
  </g>
  <g id="bullet-char-template-61548" transform="scale(0.00048828125,-0.00048828125)">
   <path d="M 173,740 C 173,903 231,1043 346,1159 462,1274 601,1332 765,1332 928,1332 1067,1274 1183,1159 1299,1043 1357,903 1357,740 1357,577 1299,437 1183,322 1067,206 928,148 765,148 601,148 462,206 346,322 231,437 173,577 173,740 Z"/>
  </g>
 </defs>
 <defs class="TextEmbeddedBitmaps"/>
 <g class="SlideGroup">
  <g>
   <g id="container-id1">
    <g id="id1" class="Slide" clip-path="url(#presentation_clip_path)">
     <g class="Page">
      <g class="Graphic">
       <g id="id3">
        <rect class="BoundingBox" stroke="none" fill="none" x="5331" y="6431" width="10600" height="11800"/>
        <defs>
         <clipPath id="clip_path_1" clipPathUnits="userSpaceOnUse">
          <path d="M 5331,6431 L 15930,6431 15930,18230 5331,18230 5331,6431 Z"/>
         </clipPath>
        </defs>
        <g clip-path="url(#clip_path_1)">
         <path fill="rgb(1,2,2)" stroke="none" d="M 12823,12304 C 12763,12304 12703,12280 12658,12233 12572,12142 12576,11999 12667,11913 13012,11585 13203,11142 13203,10666 13203,9718 12432,8947 11484,8947 10652,8947 9940,9540 9793,10358 9771,10481 9653,10563 9529,10541 9406,10518 9324,10401 9347,10277 9533,9244 10432,8494 11484,8494 12682,8494 13656,9468 13656,10666 13656,11268 13415,11827 12979,12242 12935,12283 12879,12304 12823,12304 L 12823,12304 Z"/>
         <path fill="rgb(1,2,2)" stroke="none" d="M 10812,8304 C 10708,8304 10614,8231 10591,8125 L 10352,7030 C 10325,6907 10403,6787 10525,6760 10648,6733 10768,6811 10795,6933 L 11034,8029 C 11061,8151 10983,8272 10861,8298 10845,8302 10828,8304 10812,8304 L 10812,8304 Z"/>
         <path fill="rgb(1,2,2)" stroke="none" d="M 14144,10422 C 14039,10422 13946,10349 13922,10243 13896,10121 13973,10000 14096,9973 L 15261,9719 C 15384,9692 15504,9770 15531,9892 15557,10015 15480,10135 15358,10162 L 14192,10416 C 14176,10420 14160,10422 14144,10422 L 14144,10422 Z"/>
         <path fill="rgb(1,2,2)" stroke="none" d="M 12802,8650 C 12696,8582 12666,8442 12733,8337 L 13373,7340 C 13440,7235 13581,7204 13686,7272 13791,7340 13822,7480 13754,7585 L 13115,8582 C 13071,8649 12998,8686 12924,8686 12882,8686 12839,8674 12802,8650 Z"/>
         <path fill="rgb(1,2,2)" stroke="none" d="M 9062,9466 L 8065,8826 C 7960,8759 7929,8619 7997,8513 8065,8408 8205,8377 8310,8445 L 9307,9084 C 9412,9152 9443,9292 9375,9398 9332,9465 9259,9502 9184,9502 9142,9502 9100,9490 9062,9466 Z"/>
         <path fill="rgb(1,2,2)" stroke="none" d="M 14591,13034 L 13594,12395 C 13489,12327 13458,12187 13526,12082 13593,11976 13734,11946 13839,12013 L 14836,12653 C 14941,12720 14971,12861 14904,12966 14861,13033 14788,13070 14713,13070 14671,13070 14629,13059 14591,13034 Z"/>
         <path fill="rgb(1,2,2)" stroke="none" d="M 7158,15645 C 6321,15640 5641,14956 5641,14122 5641,13400 6136,12796 6812,12638 6803,12580 6798,12521 6798,12461 6798,11888 7264,11422 7837,11422 8024,11422 8204,11471 8361,11563 8795,10994 9462,10661 10189,10661 11329,10661 12289,11498 12463,12602 13252,12659 13875,13319 13875,14122 13875,14954 13199,15637 12367,15645 L 7158,15645 Z M 7837,11875 C 7514,11875 7251,12138 7251,12461 7251,12553 7272,12642 7313,12724 7348,12793 7345,12874 7306,12941 7267,13007 7197,13049 7120,13052 6545,13075 6094,13545 6094,14122 6094,14708 6572,15188 7160,15192 L 12365,15192 C 12947,15186 13422,14706 13422,14122 13422,13531 12942,13051 12352,13051 12329,13051 12306,13052 12276,13054 12216,13058 12157,13038 12111,12999 12066,12959 12038,12903 12034,12843 11972,11873 11162,11114 10189,11114 9537,11114 8946,11447 8607,12006 8571,12065 8510,12105 8440,12113 8371,12121 8302,12097 8253,12048 8142,11936 7994,11875 7837,11875 L 7837,11875 Z"/>
         <path fill="rgb(1,2,2)" stroke="none" d="M 9147,18013 C 9089,18013 9031,17991 8986,17947 8898,17858 8898,17715 8987,17626 L 9528,17086 C 9616,16997 9760,16997 9848,17086 9937,17175 9937,17318 9848,17407 L 9307,17947 C 9263,17991 9205,18014 9147,18014 L 9147,18013 Z"/>
         <path fill="rgb(1,2,2)" stroke="none" d="M 7266,16781 C 7208,16781 7150,16759 7106,16715 7017,16626 7017,16483 7106,16394 L 7447,16053 C 7536,15965 7679,15965 7768,16054 7856,16142 7856,16286 7768,16374 L 7426,16715 C 7382,16759 7324,16782 7266,16782 L 7266,16781 Z"/>
         <path fill="rgb(1,2,2)" stroke="none" d="M 10271,16781 C 10213,16781 10155,16759 10110,16715 10022,16626 10022,16483 10111,16394 L 10452,16053 C 10540,15965 10684,15965 10772,16054 10861,16142 10861,16286 10772,16374 L 10431,16715 C 10387,16759 10329,16782 10271,16782 L 10271,16781 Z"/>
         <path fill="rgb(1,2,2)" stroke="none" d="M 11243,17325 C 11185,17325 11127,17303 11083,17259 10994,17170 10995,17027 11083,16938 L 11969,16053 C 12058,15965 12201,15965 12290,16054 12378,16142 12378,16286 12289,16374 L 11403,17259 C 11359,17303 11301,17325 11243,17325 L 11243,17325 Z"/>
         <path fill="rgb(1,2,2)" stroke="none" d="M 7979,17563 C 7921,17563 7863,17541 7819,17497 7731,17408 7731,17265 7819,17176 L 8943,16053 C 9032,15965 9175,15965 9264,16054 9352,16142 9352,16286 9263,16374 L 8140,17497 C 8095,17541 8037,17563 7979,17563 L 7979,17563 Z"/>
        </g>
       </g>
      </g>
     </g>
    </g>
   </g>
  </g>
 </g>
</svg>