<?xml version="1.0" encoding="UTF-8"?>
<!DOCTYPE svg PUBLIC "-//W3C//DTD SVG 1.1//EN" "http://www.w3.org/Graphics/SVG/1.1/DTD/svg11.dtd">
<svg version="1.2" width="50mm" height="52.2mm" viewBox="563 0 5000 5220" preserveAspectRatio="xMidYMid" fill-rule="evenodd" stroke-width="28.222" stroke-linejoin="round" xmlns="http://www.w3.org/2000/svg" xmlns:ooo="http://xml.openoffice.org/svg/export" xmlns:xlink="http://www.w3.org/1999/xlink" xmlns:presentation="http://sun.com/xmlns/staroffice/presentation" xmlns:smil="http://www.w3.org/2001/SMIL20/" xmlns:anim="urn:oasis:names:tc:opendocument:xmlns:animation:1.0" xml:space="preserve">
 <defs class="ClipPathGroup">
  <clipPath id="presentation_clip_path" clipPathUnits="userSpaceOnUse">
   <rect x="563" y="0" width="5000" height="5220"/>
  </clipPath>
  <clipPath id="presentation_clip_path_shrink" clipPathUnits="userSpaceOnUse">
   <rect x="568" y="5" width="4990" height="5210"/>
  </clipPath>
 </defs>
 <defs class="TextShapeIndex">
  <g ooo:slide="id1" ooo:id-list="id3 id4 id5 id6 id7 id8 id9 id10"/>
 </defs>
 <defs class="EmbeddedBulletChars">
  <g id="bullet-char-template(57356)" transform="scale(0.00048828125,-0.00048828125)">
   <path d="M 580,1141 L 1163,571 580,0 -4,571 580,1141 Z"/>
  </g>
  <g id="bullet-char-template(57354)" transform="scale(0.00048828125,-0.00048828125)">
   <path d="M 8,1128 L 1137,1128 1137,0 8,0 8,1128 Z"/>
  </g>
  <g id="bullet-char-template(10146)" transform="scale(0.00048828125,-0.00048828125)">
   <path d="M 174,0 L 602,739 174,1481 1456,739 174,0 Z M 1358,739 L 309,1346 659,739 1358,739 Z"/>
  </g>
  <g id="bullet-char-template(10132)" transform="scale(0.00048828125,-0.00048828125)">
   <path d="M 2015,739 L 1276,0 717,0 1260,543 174,543 174,936 1260,936 717,1481 1274,1481 2015,739 Z"/>
  </g>
  <g id="bullet-char-template(10007)" transform="scale(0.00048828125,-0.00048828125)">
   <path d="M 0,-2 C -7,14 -16,27 -25,37 L 356,567 C 262,823 215,952 215,954 215,979 228,992 255,992 264,992 276,990 289,987 310,991 331,999 354,1012 L 381,999 492,748 772,1049 836,1024 860,1049 C 881,1039 901,1025 922,1006 886,937 835,863 770,784 769,783 710,716 594,584 L 774,223 C 774,196 753,168 711,139 L 727,119 C 717,90 699,76 672,76 641,76 570,178 457,381 L 164,-76 C 142,-110 111,-127 72,-127 30,-127 9,-110 8,-76 1,-67 -2,-52 -2,-32 -2,-23 -1,-13 0,-2 Z"/>
  </g>
  <g id="bullet-char-template(10004)" transform="scale(0.00048828125,-0.00048828125)">
   <path d="M 285,-33 C 182,-33 111,30 74,156 52,228 41,333 41,471 41,549 55,616 82,672 116,743 169,778 240,778 293,778 328,747 346,684 L 369,508 C 377,444 397,411 428,410 L 1163,1116 C 1174,1127 1196,1133 1229,1133 1271,1133 1292,1118 1292,1087 L 1292,965 C 1292,929 1282,901 1262,881 L 442,47 C 390,-6 338,-33 285,-33 Z"/>
  </g>
  <g id="bullet-char-template(9679)" transform="scale(0.00048828125,-0.00048828125)">
   <path d="M 813,0 C 632,0 489,54 383,161 276,268 223,411 223,592 223,773 276,916 383,1023 489,1130 632,1184 813,1184 992,1184 1136,1130 1245,1023 1353,916 1407,772 1407,592 1407,412 1353,268 1245,161 1136,54 992,0 813,0 Z"/>
  </g>
  <g id="bullet-char-template(8226)" transform="scale(0.00048828125,-0.00048828125)">
   <path d="M 346,457 C 273,457 209,483 155,535 101,586 74,649 74,723 74,796 101,859 155,911 209,963 273,989 346,989 419,989 480,963 531,910 582,859 608,796 608,723 608,648 583,586 532,535 482,483 420,457 346,457 Z"/>
  </g>
  <g id="bullet-char-template(8211)" transform="scale(0.00048828125,-0.00048828125)">
   <path d="M -4,459 L 1135,459 1135,606 -4,606 -4,459 Z"/>
  </g>
  <g id="bullet-char-template(61548)" transform="scale(0.00048828125,-0.00048828125)">
   <path d="M 173,740 C 173,903 231,1043 346,1159 462,1274 601,1332 765,1332 928,1332 1067,1274 1183,1159 1299,1043 1357,903 1357,740 1357,577 1299,437 1183,322 1067,206 928,148 765,148 601,148 462,206 346,322 231,437 173,577 173,740 Z"/>
  </g>
 </defs>
 <defs class="TextEmbeddedBitmaps"/>
 <g class="SlideGroup">
  <g>
   <g id="container-id1">
    <g id="id1" class="Slide" clip-path="url(#presentation_clip_path)">
     <g class="Page">
      <g class="Group">
       <g class="com.sun.star.drawing.ClosedBezierShape">
        <g id="id3">
         <rect class="BoundingBox" stroke="none" fill="none" x="562" y="894" width="4331" height="2985"/>
         <path fill="rgb(0,0,0)" stroke="none" d="M 4560,2400 C 4630,2257 4667,2100 4667,1939 4667,1363 4199,895 3623,895 3279,895 2959,1065 2765,1344 2752,1343 2740,1342 2727,1342 2155,1342 1666,1716 1510,2251 1467,2243 1422,2237 1384,2237 931,2237 563,2605 563,3057 563,3510 931,3878 1384,3878 1466,3878 1533,3811 1533,3728 1533,3646 1466,3579 1384,3579 1096,3579 862,3345 862,3057 862,2769 1096,2535 1384,2535 1405,2535 1438,2540 1473,2547 L 1473,2684 C 1473,2767 1540,2833 1622,2833 1705,2833 1772,2767 1772,2684 L 1772,2444 C 1852,1978 2252,1640 2727,1640 3203,1640 3603,1978 3683,2445 L 3683,2684 C 3683,2767 3750,2833 3832,2833 3915,2833 3982,2767 3982,2684 L 3982,2547 C 4017,2540 4050,2535 4071,2535 4359,2535 4593,2769 4593,3057 4593,3345 4359,3579 4071,3579 3988,3579 3921,3646 3921,3728 3921,3811 3988,3878 4071,3878 4523,3878 4892,3510 4892,3057 4892,2788 4761,2550 4560,2400 Z M 3944,2251 C 3824,1840 3507,1525 3108,1401 3245,1270 3428,1193 3623,1193 4034,1193 4369,1528 4369,1939 4369,2054 4342,2166 4292,2268 4221,2248 4147,2237 4071,2237 4033,2237 3988,2243 3944,2251 Z"/>
        </g>
       </g>
       <g class="com.sun.star.drawing.ClosedBezierShape">
        <g id="id4">
         <rect class="BoundingBox" stroke="none" fill="none" x="3473" y="0" width="300" height="598"/>
         <path fill="rgb(0,0,0)" stroke="none" d="M 3623,597 C 3705,597 3772,530 3772,448 L 3772,149 C 3772,67 3705,0 3623,0 3540,0 3473,67 3473,149 L 3473,448 C 3473,530 3540,597 3623,597 Z"/>
        </g>
       </g>
       <g class="com.sun.star.drawing.ClosedBezierShape">
        <g id="id5">
         <rect class="BoundingBox" stroke="none" fill="none" x="4965" y="1789" width="599" height="301"/>
         <path fill="rgb(0,0,0)" stroke="none" d="M 5414,1790 L 5115,1790 C 5033,1790 4966,1856 4966,1939 4966,2021 5033,2088 5115,2088 L 5414,2088 C 5496,2088 5563,2021 5563,1939 5563,1856 5496,1790 5414,1790 Z"/>
        </g>
       </g>
       <g class="com.sun.star.drawing.ClosedBezierShape">
        <g id="id6">
         <rect class="BoundingBox" stroke="none" fill="none" x="4528" y="524" width="512" height="511"/>
         <path fill="rgb(0,0,0)" stroke="none" d="M 4678,1033 C 4716,1033 4754,1019 4784,990 L 4995,779 C 5053,721 5053,626 4995,568 4936,510 4842,510 4784,568 L 4573,779 C 4514,837 4514,932 4573,990 4602,1019 4640,1033 4678,1033 Z"/>
        </g>
       </g>
       <g class="com.sun.star.drawing.ClosedBezierShape">
        <g id="id7">
         <rect class="BoundingBox" stroke="none" fill="none" x="2206" y="524" width="512" height="511"/>
         <path fill="rgb(0,0,0)" stroke="none" d="M 2462,990 C 2491,1019 2529,1033 2567,1033 2606,1033 2644,1019 2673,990 2731,932 2731,837 2673,779 L 2462,568 C 2404,510 2309,510 2251,568 2192,626 2192,721 2251,779 L 2462,990 Z"/>
        </g>
       </g>
       <g class="com.sun.star.drawing.ClosedBezierShape">
        <g id="id8">
         <rect class="BoundingBox" stroke="none" fill="none" x="2204" y="3131" width="749" height="2090"/>
         <path fill="rgb(0,0,0)" stroke="none" d="M 2838,3136 C 2758,3116 2677,3165 2657,3245 L 2209,5034 C 2189,5114 2238,5195 2318,5215 2330,5219 2342,5220 2354,5220 2421,5220 2482,5175 2499,5107 L 2947,3317 C 2967,3237 2918,3156 2838,3136 Z"/>
        </g>
       </g>
       <g class="com.sun.star.drawing.ClosedBezierShape">
        <g id="id9">
         <rect class="BoundingBox" stroke="none" fill="none" x="3025" y="3579" width="525" height="1195"/>
         <path fill="rgb(0,0,0)" stroke="none" d="M 3435,3584 C 3356,3564 3274,3612 3254,3692 L 3030,4587 C 3010,4667 3059,4748 3139,4768 3151,4771 3163,4772 3175,4772 3242,4772 3303,4727 3320,4659 L 3544,3765 C 3564,3684 3515,3603 3435,3584 Z"/>
        </g>
       </g>
       <g class="com.sun.star.drawing.ClosedBezierShape">
        <g id="id10">
         <rect class="BoundingBox" stroke="none" fill="none" x="1607" y="3579" width="525" height="1195"/>
         <path fill="rgb(0,0,0)" stroke="none" d="M 2017,3584 C 1938,3564 1856,3612 1836,3692 L 1612,4587 C 1592,4667 1641,4748 1721,4768 1733,4771 1745,4772 1757,4772 1824,4772 1885,4727 1902,4659 L 2126,3765 C 2146,3684 2097,3603 2017,3584 Z"/>
        </g>
       </g>
      </g>
     </g>
    </g>
   </g>
  </g>
 </g>
</svg>