<?xml version="1.0" encoding="UTF-8"?>
<!DOCTYPE svg PUBLIC "-//W3C//DTD SVG 1.1//EN" "http://www.w3.org/Graphics/SVG/1.1/DTD/svg11.dtd">
<svg version="1.2" width="50mm" height="46.5mm" viewBox="0 0 5000 4650" preserveAspectRatio="xMidYMid" fill-rule="evenodd" stroke-width="28.222" stroke-linejoin="round" xmlns="http://www.w3.org/2000/svg" xmlns:ooo="http://xml.openoffice.org/svg/export" xmlns:xlink="http://www.w3.org/1999/xlink" xmlns:presentation="http://sun.com/xmlns/staroffice/presentation" xmlns:smil="http://www.w3.org/2001/SMIL20/" xmlns:anim="urn:oasis:names:tc:opendocument:xmlns:animation:1.0" xml:space="preserve">
 <defs class="ClipPathGroup">
  <clipPath id="presentation_clip_path" clipPathUnits="userSpaceOnUse">
   <rect x="0" y="0" width="5000" height="4650"/>
  </clipPath>
  <clipPath id="presentation_clip_path_shrink" clipPathUnits="userSpaceOnUse">
   <rect x="5" y="4" width="4990" height="4641"/>
  </clipPath>
 </defs>
 <defs class="TextShapeIndex">
  <g ooo:slide="id1" ooo:id-list="id3 id4 id5 id6 id7 id8 id9 id10 id11 id12 id13 id14 id15 id16 id17 id18"/>
 </defs>
 <defs class="EmbeddedBulletChars">
  <g id="bullet-char-template(57356)" transform="scale(0.00048828125,-0.00048828125)">
   <path d="M 580,1141 L 1163,571 580,0 -4,571 580,1141 Z"/>
  </g>
  <g id="bullet-char-template(57354)" transform="scale(0.00048828125,-0.00048828125)">
   <path d="M 8,1128 L 1137,1128 1137,0 8,0 8,1128 Z"/>
  </g>
  <g id="bullet-char-template(10146)" transform="scale(0.00048828125,-0.00048828125)">
   <path d="M 174,0 L 602,739 174,1481 1456,739 174,0 Z M 1358,739 L 309,1346 659,739 1358,739 Z"/>
  </g>
  <g id="bullet-char-template(10132)" transform="scale(0.00048828125,-0.00048828125)">
   <path d="M 2015,739 L 1276,0 717,0 1260,543 174,543 174,936 1260,936 717,1481 1274,1481 2015,739 Z"/>
  </g>
  <g id="bullet-char-template(10007)" transform="scale(0.00048828125,-0.00048828125)">
   <path d="M 0,-2 C -7,14 -16,27 -25,37 L 356,567 C 262,823 215,952 215,954 215,979 228,992 255,992 264,992 276,990 289,987 310,991 331,999 354,1012 L 381,999 492,748 772,1049 836,1024 860,1049 C 881,1039 901,1025 922,1006 886,937 835,863 770,784 769,783 710,716 594,584 L 774,223 C 774,196 753,168 711,139 L 727,119 C 717,90 699,76 672,76 641,76 570,178 457,381 L 164,-76 C 142,-110 111,-127 72,-127 30,-127 9,-110 8,-76 1,-67 -2,-52 -2,-32 -2,-23 -1,-13 0,-2 Z"/>
  </g>
  <g id="bullet-char-template(10004)" transform="scale(0.00048828125,-0.00048828125)">
   <path d="M 285,-33 C 182,-33 111,30 74,156 52,228 41,333 41,471 41,549 55,616 82,672 116,743 169,778 240,778 293,778 328,747 346,684 L 369,508 C 377,444 397,411 428,410 L 1163,1116 C 1174,1127 1196,1133 1229,1133 1271,1133 1292,1118 1292,1087 L 1292,965 C 1292,929 1282,901 1262,881 L 442,47 C 390,-6 338,-33 285,-33 Z"/>
  </g>
  <g id="bullet-char-template(9679)" transform="scale(0.00048828125,-0.00048828125)">
   <path d="M 813,0 C 632,0 489,54 383,161 276,268 223,411 223,592 223,773 276,916 383,1023 489,1130 632,1184 813,1184 992,1184 1136,1130 1245,1023 1353,916 1407,772 1407,592 1407,412 1353,268 1245,161 1136,54 992,0 813,0 Z"/>
  </g>
  <g id="bullet-char-template(8226)" transform="scale(0.00048828125,-0.00048828125)">
   <path d="M 346,457 C 273,457 209,483 155,535 101,586 74,649 74,723 74,796 101,859 155,911 209,963 273,989 346,989 419,989 480,963 531,910 582,859 608,796 608,723 608,648 583,586 532,535 482,483 420,457 346,457 Z"/>
  </g>
  <g id="bullet-char-template(8211)" transform="scale(0.00048828125,-0.00048828125)">
   <path d="M -4,459 L 1135,459 1135,606 -4,606 -4,459 Z"/>
  </g>
  <g id="bullet-char-template(61548)" transform="scale(0.00048828125,-0.00048828125)">
   <path d="M 173,740 C 173,903 231,1043 346,1159 462,1274 601,1332 765,1332 928,1332 1067,1274 1183,1159 1299,1043 1357,903 1357,740 1357,577 1299,437 1183,322 1067,206 928,148 765,148 601,148 462,206 346,322 231,437 173,577 173,740 Z"/>
  </g>
 </defs>
 <defs class="TextEmbeddedBitmaps"/>
 <g class="SlideGroup">
  <g>
   <g id="container-id1">
    <g id="id1" class="Slide" clip-path="url(#presentation_clip_path)">
     <g class="Page">
      <g class="Group">
       <g class="com.sun.star.drawing.PolyPolygonShape">
        <g id="id3">
         <rect class="BoundingBox" stroke="none" fill="none" x="0" y="894" width="4330" height="2985"/>
        </g>
       </g>
       <g class="com.sun.star.drawing.ClosedBezierShape">
        <g id="id4">
         <rect class="BoundingBox" stroke="none" fill="none" x="0" y="894" width="4330" height="2984"/>
         <path fill="rgb(0,0,0)" stroke="none" d="M 3997,2400 C 4067,2257 4104,2100 4104,1939 4104,1363 3636,895 3060,895 2716,895 2396,1065 2202,1344 2189,1343 2177,1342 2164,1342 1592,1342 1103,1716 947,2250 904,2243 859,2237 821,2237 368,2237 0,2605 0,3057 0,3509 368,3877 821,3877 L 3507,3877 C 3960,3877 4328,3509 4328,3057 4328,2788 4197,2549 3997,2400 Z M 3060,1193 C 3471,1193 3806,1527 3806,1939 3806,2054 3779,2166 3729,2268 3658,2248 3584,2237 3507,2237 3469,2237 3425,2243 3381,2250 3261,1840 2944,1525 2545,1401 2682,1270 2865,1193 3060,1193 Z M 3507,3579 L 821,3579 C 533,3579 298,3345 298,3057 298,2769 533,2535 821,2535 842,2535 875,2540 910,2547 L 910,2684 C 910,2766 977,2833 1059,2833 1142,2833 1209,2766 1209,2684 L 1209,2444 C 1289,1978 1689,1640 2164,1640 2640,1640 3040,1978 3120,2444 L 3120,2684 C 3120,2766 3187,2833 3269,2833 3352,2833 3418,2766 3418,2684 L 3418,2547 C 3453,2540 3487,2535 3507,2535 3795,2535 4030,2769 4030,3057 4030,3345 3795,3579 3507,3579 Z"/>
        </g>
       </g>
       <g class="com.sun.star.drawing.PolyPolygonShape">
        <g id="id5">
         <rect class="BoundingBox" stroke="none" fill="none" x="2910" y="0" width="301" height="598"/>
        </g>
       </g>
       <g class="com.sun.star.drawing.ClosedBezierShape">
        <g id="id6">
         <rect class="BoundingBox" stroke="none" fill="none" x="2910" y="0" width="300" height="598"/>
         <path fill="rgb(0,0,0)" stroke="none" d="M 3060,597 C 3142,597 3209,530 3209,448 L 3209,149 C 3209,67 3142,0 3060,0 2977,0 2910,67 2910,149 L 2910,448 C 2910,530 2977,597 3060,597 Z"/>
        </g>
       </g>
       <g class="com.sun.star.drawing.PolyPolygonShape">
        <g id="id7">
         <rect class="BoundingBox" stroke="none" fill="none" x="4402" y="1788" width="599" height="302"/>
        </g>
       </g>
       <g class="com.sun.star.drawing.ClosedBezierShape">
        <g id="id8">
         <rect class="BoundingBox" stroke="none" fill="none" x="4402" y="1789" width="599" height="300"/>
         <path fill="rgb(0,0,0)" stroke="none" d="M 4851,1789 L 4552,1789 C 4469,1789 4403,1856 4403,1938 4403,2021 4469,2088 4552,2088 L 4851,2088 C 4933,2088 5000,2021 5000,1938 5000,1856 4933,1789 4851,1789 Z"/>
        </g>
       </g>
       <g class="com.sun.star.drawing.PolyPolygonShape">
        <g id="id9">
         <rect class="BoundingBox" stroke="none" fill="none" x="3965" y="524" width="512" height="511"/>
        </g>
       </g>
       <g class="com.sun.star.drawing.ClosedBezierShape">
        <g id="id10">
         <rect class="BoundingBox" stroke="none" fill="none" x="3965" y="523" width="512" height="512"/>
         <path fill="rgb(0,0,0)" stroke="none" d="M 4115,1033 C 4153,1033 4191,1019 4220,990 L 4432,779 C 4490,720 4490,626 4432,568 4373,509 4279,509 4220,568 L 4009,779 C 3951,837 3951,931 4009,990 4038,1019 4077,1033 4115,1033 Z"/>
        </g>
       </g>
       <g class="com.sun.star.drawing.PolyPolygonShape">
        <g id="id11">
         <rect class="BoundingBox" stroke="none" fill="none" x="1643" y="524" width="512" height="511"/>
        </g>
       </g>
       <g class="com.sun.star.drawing.ClosedBezierShape">
        <g id="id12">
         <rect class="BoundingBox" stroke="none" fill="none" x="1643" y="523" width="512" height="512"/>
         <path fill="rgb(0,0,0)" stroke="none" d="M 1899,990 C 1928,1019 1966,1033 2004,1033 2042,1033 2081,1019 2110,990 2168,931 2168,837 2110,779 L 1899,568 C 1840,509 1746,509 1688,568 1629,626 1629,720 1688,779 L 1899,990 Z"/>
        </g>
       </g>
       <g class="com.sun.star.drawing.PolyPolygonShape">
        <g id="id13">
         <rect class="BoundingBox" stroke="none" fill="none" x="652" y="4117" width="513" height="512"/>
        </g>
       </g>
       <g class="com.sun.star.drawing.ClosedBezierShape">
        <g id="id14">
         <rect class="BoundingBox" stroke="none" fill="none" x="652" y="4117" width="512" height="512"/>
         <path fill="rgb(0,0,0)" stroke="none" d="M 908,4162 L 696,4373 C 638,4431 638,4525 696,4584 755,4642 849,4642 908,4584 L 1119,4373 C 1177,4314 1177,4220 1119,4162 1060,4103 966,4103 908,4162 Z"/>
        </g>
       </g>
       <g class="com.sun.star.drawing.PolyPolygonShape">
        <g id="id15">
         <rect class="BoundingBox" stroke="none" fill="none" x="1794" y="4140" width="512" height="512"/>
        </g>
       </g>
       <g class="com.sun.star.drawing.ClosedBezierShape">
        <g id="id16">
         <rect class="BoundingBox" stroke="none" fill="none" x="1794" y="4140" width="512" height="512"/>
         <path fill="rgb(0,0,0)" stroke="none" d="M 2050,4184 L 1838,4395 C 1780,4454 1780,4548 1838,4606 1897,4665 1991,4665 2050,4606 L 2261,4395 C 2319,4337 2319,4243 2261,4184 2202,4126 2108,4126 2050,4184 Z"/>
        </g>
       </g>
       <g class="com.sun.star.drawing.PolyPolygonShape">
        <g id="id17">
         <rect class="BoundingBox" stroke="none" fill="none" x="2976" y="4136" width="512" height="512"/>
        </g>
       </g>
       <g class="com.sun.star.drawing.ClosedBezierShape">
        <g id="id18">
         <rect class="BoundingBox" stroke="none" fill="none" x="2976" y="4136" width="512" height="512"/>
         <path fill="rgb(0,0,0)" stroke="none" d="M 3232,4181 L 3020,4392 C 2962,4450 2962,4544 3020,4603 3079,4661 3173,4661 3232,4603 L 3443,4392 C 3501,4333 3501,4239 3443,4181 3384,4122 3290,4122 3232,4181 Z"/>
        </g>
       </g>
      </g>
     </g>
    </g>
   </g>
  </g>
 </g>
</svg>