<?xml version="1.0" encoding="UTF-8"?>
<!DOCTYPE svg PUBLIC "-//W3C//DTD SVG 1.1//EN" "http://www.w3.org/Graphics/SVG/1.1/DTD/svg11.dtd">
<svg version="1.2" width="50mm" height="38.8mm" viewBox="0 2938 5000 3880" preserveAspectRatio="xMidYMid" fill-rule="evenodd" stroke-width="28.222" stroke-linejoin="round" xmlns="http://www.w3.org/2000/svg" xmlns:ooo="http://xml.openoffice.org/svg/export" xmlns:xlink="http://www.w3.org/1999/xlink" xmlns:presentation="http://sun.com/xmlns/staroffice/presentation" xmlns:smil="http://www.w3.org/2001/SMIL20/" xmlns:anim="urn:oasis:names:tc:opendocument:xmlns:animation:1.0" xml:space="preserve">
 <defs class="ClipPathGroup">
  <clipPath id="presentation_clip_path" clipPathUnits="userSpaceOnUse">
   <rect x="0" y="2938" width="5000" height="3880"/>
  </clipPath>
  <clipPath id="presentation_clip_path_shrink" clipPathUnits="userSpaceOnUse">
   <rect x="5" y="2941" width="4990" height="3873"/>
  </clipPath>
 </defs>
 <defs class="TextShapeIndex">
  <g ooo:slide="id1" ooo:id-list="id3 id4 id5 id6 id7"/>
 </defs>
 <defs class="EmbeddedBulletChars">
  <g id="bullet-char-template(57356)" transform="scale(0.00048828125,-0.00048828125)">
   <path d="M 580,1141 L 1163,571 580,0 -4,571 580,1141 Z"/>
  </g>
  <g id="bullet-char-template(57354)" transform="scale(0.00048828125,-0.00048828125)">
   <path d="M 8,1128 L 1137,1128 1137,0 8,0 8,1128 Z"/>
  </g>
  <g id="bullet-char-template(10146)" transform="scale(0.00048828125,-0.00048828125)">
   <path d="M 174,0 L 602,739 174,1481 1456,739 174,0 Z M 1358,739 L 309,1346 659,739 1358,739 Z"/>
  </g>
  <g id="bullet-char-template(10132)" transform="scale(0.00048828125,-0.00048828125)">
   <path d="M 2015,739 L 1276,0 717,0 1260,543 174,543 174,936 1260,936 717,1481 1274,1481 2015,739 Z"/>
  </g>
  <g id="bullet-char-template(10007)" transform="scale(0.00048828125,-0.00048828125)">
   <path d="M 0,-2 C -7,14 -16,27 -25,37 L 356,567 C 262,823 215,952 215,954 215,979 228,992 255,992 264,992 276,990 289,987 310,991 331,999 354,1012 L 381,999 492,748 772,1049 836,1024 860,1049 C 881,1039 901,1025 922,1006 886,937 835,863 770,784 769,783 710,716 594,584 L 774,223 C 774,196 753,168 711,139 L 727,119 C 717,90 699,76 672,76 641,76 570,178 457,381 L 164,-76 C 142,-110 111,-127 72,-127 30,-127 9,-110 8,-76 1,-67 -2,-52 -2,-32 -2,-23 -1,-13 0,-2 Z"/>
  </g>
  <g id="bullet-char-template(10004)" transform="scale(0.00048828125,-0.00048828125)">
   <path d="M 285,-33 C 182,-33 111,30 74,156 52,228 41,333 41,471 41,549 55,616 82,672 116,743 169,778 240,778 293,778 328,747 346,684 L 369,508 C 377,444 397,411 428,410 L 1163,1116 C 1174,1127 1196,1133 1229,1133 1271,1133 1292,1118 1292,1087 L 1292,965 C 1292,929 1282,901 1262,881 L 442,47 C 390,-6 338,-33 285,-33 Z"/>
  </g>
  <g id="bullet-char-template(9679)" transform="scale(0.00048828125,-0.00048828125)">
   <path d="M 813,0 C 632,0 489,54 383,161 276,268 223,411 223,592 223,773 276,916 383,1023 489,1130 632,1184 813,1184 992,1184 1136,1130 1245,1023 1353,916 1407,772 1407,592 1407,412 1353,268 1245,161 1136,54 992,0 813,0 Z"/>
  </g>
  <g id="bullet-char-template(8226)" transform="scale(0.00048828125,-0.00048828125)">
   <path d="M 346,457 C 273,457 209,483 155,535 101,586 74,649 74,723 74,796 101,859 155,911 209,963 273,989 346,989 419,989 480,963 531,910 582,859 608,796 608,723 608,648 583,586 532,535 482,483 420,457 346,457 Z"/>
  </g>
  <g id="bullet-char-template(8211)" transform="scale(0.00048828125,-0.00048828125)">
   <path d="M -4,459 L 1135,459 1135,606 -4,606 -4,459 Z"/>
  </g>
  <g id="bullet-char-template(61548)" transform="scale(0.00048828125,-0.00048828125)">
   <path d="M 173,740 C 173,903 231,1043 346,1159 462,1274 601,1332 765,1332 928,1332 1067,1274 1183,1159 1299,1043 1357,903 1357,740 1357,577 1299,437 1183,322 1067,206 928,148 765,148 601,148 462,206 346,322 231,437 173,577 173,740 Z"/>
  </g>
 </defs>
 <defs class="TextEmbeddedBitmaps"/>
 <g class="SlideGroup">
  <g>
   <g id="container-id1">
    <g id="id1" class="Slide" clip-path="url(#presentation_clip_path)">
     <g class="Page">
      <g class="Group">
       <g class="com.sun.star.drawing.ClosedBezierShape">
        <g id="id3">
         <rect class="BoundingBox" stroke="none" fill="none" x="0" y="3833" width="4330" height="2986"/>
         <path fill="rgb(0,0,0)" stroke="none" d="M 3997,5340 C 4067,5197 4104,5040 4104,4878 4104,4302 3636,3833 3060,3833 2716,3833 2396,4004 2202,4283 2189,4282 2177,4281 2164,4281 1592,4281 1103,4655 947,5190 904,5182 859,5176 821,5176 368,5176 0,5545 0,5997 0,6450 368,6818 821,6818 L 3507,6818 C 3960,6818 4328,6450 4328,5997 4328,5728 4198,5489 3997,5340 Z M 3060,4132 C 3471,4132 3806,4467 3806,4878 3806,4993 3779,5106 3729,5208 3658,5188 3584,5176 3507,5176 3470,5176 3425,5182 3381,5190 3261,4779 2944,4464 2545,4340 2682,4209 2865,4132 3060,4132 Z M 3507,6520 L 821,6520 C 533,6520 298,6285 298,5997 298,5709 533,5475 821,5475 841,5475 875,5480 910,5487 L 910,5624 C 910,5706 977,5773 1059,5773 1142,5773 1209,5706 1209,5624 L 1209,5384 C 1289,4917 1689,4580 2164,4580 2640,4580 3040,4918 3120,5384 L 3120,5624 C 3120,5706 3187,5773 3269,5773 3352,5773 3419,5706 3419,5624 L 3419,5487 C 3454,5480 3487,5475 3507,5475 3795,5475 4030,5709 4030,5997 4030,6285 3795,6520 3507,6520 Z"/>
        </g>
       </g>
       <g class="com.sun.star.drawing.ClosedBezierShape">
        <g id="id4">
         <rect class="BoundingBox" stroke="none" fill="none" x="2910" y="2938" width="301" height="598"/>
         <path fill="rgb(0,0,0)" stroke="none" d="M 3060,3535 C 3142,3535 3209,3468 3209,3386 L 3209,3087 C 3209,3005 3142,2938 3060,2938 2977,2938 2910,3005 2910,3087 L 2910,3386 C 2910,3468 2977,3535 3060,3535 Z"/>
        </g>
       </g>
       <g class="com.sun.star.drawing.ClosedBezierShape">
        <g id="id5">
         <rect class="BoundingBox" stroke="none" fill="none" x="4402" y="4728" width="600" height="301"/>
         <path fill="rgb(0,0,0)" stroke="none" d="M 4851,4729 L 4552,4729 C 4470,4729 4403,4795 4403,4878 4403,4960 4470,5027 4552,5027 L 4851,5027 C 4933,5027 5000,4960 5000,4878 5000,4795 4933,4729 4851,4729 Z"/>
        </g>
       </g>
       <g class="com.sun.star.drawing.ClosedBezierShape">
        <g id="id6">
         <rect class="BoundingBox" stroke="none" fill="none" x="3965" y="3462" width="512" height="512"/>
         <path fill="rgb(0,0,0)" stroke="none" d="M 4115,3972 C 4153,3972 4192,3958 4221,3928 L 4432,3717 C 4490,3659 4490,3565 4432,3506 4373,3448 4279,3448 4221,3506 L 4010,3717 C 3951,3776 3951,3870 4010,3928 4039,3958 4077,3972 4115,3972 Z"/>
        </g>
       </g>
       <g class="com.sun.star.drawing.ClosedBezierShape">
        <g id="id7">
         <rect class="BoundingBox" stroke="none" fill="none" x="1643" y="3462" width="512" height="512"/>
         <path fill="rgb(0,0,0)" stroke="none" d="M 1899,3928 C 1928,3958 1966,3972 2004,3972 2043,3972 2081,3958 2110,3928 2168,3870 2168,3776 2110,3717 L 1899,3506 C 1841,3448 1746,3448 1688,3506 1629,3565 1629,3659 1688,3717 L 1899,3928 Z"/>
        </g>
       </g>
      </g>
     </g>
    </g>
   </g>
  </g>
 </g>
</svg>