<?xml version="1.0" encoding="UTF-8"?>
<!DOCTYPE svg PUBLIC "-//W3C//DTD SVG 1.1//EN" "http://www.w3.org/Graphics/SVG/1.1/DTD/svg11.dtd">
<svg version="1.2" width="94.99mm" height="84.99mm" viewBox="5131 3631 9499 8499" preserveAspectRatio="xMidYMid" fill-rule="evenodd" stroke-width="28.222" stroke-linejoin="round" xmlns="http://www.w3.org/2000/svg" xmlns:ooo="http://xml.openoffice.org/svg/export" xmlns:xlink="http://www.w3.org/1999/xlink" xmlns:presentation="http://sun.com/xmlns/staroffice/presentation" xmlns:smil="http://www.w3.org/2001/SMIL20/" xmlns:anim="urn:oasis:names:tc:opendocument:xmlns:animation:1.0" xml:space="preserve">
 <defs class="ClipPathGroup">
  <clipPath id="presentation_clip_path" clipPathUnits="userSpaceOnUse">
   <rect x="5131" y="3631" width="9499" height="8499"/>
  </clipPath>
  <clipPath id="presentation_clip_path_shrink" clipPathUnits="userSpaceOnUse">
   <rect x="5140" y="3639" width="9481" height="8483"/>
  </clipPath>
 </defs>
 <defs class="TextShapeIndex">
  <g ooo:slide="id1" ooo:id-list="id3"/>
 </defs>
 <defs class="EmbeddedBulletChars">
  <g id="bullet-char-template-57356" transform="scale(0.00048828125,-0.00048828125)">
   <path d="M 580,1141 L 1163,571 580,0 -4,571 580,1141 Z"/>
  </g>
  <g id="bullet-char-template-57354" transform="scale(0.00048828125,-0.00048828125)">
   <path d="M 8,1128 L 1137,1128 1137,0 8,0 8,1128 Z"/>
  </g>
  <g id="bullet-char-template-10146" transform="scale(0.00048828125,-0.00048828125)">
   <path d="M 174,0 L 602,739 174,1481 1456,739 174,0 Z M 1358,739 L 309,1346 659,739 1358,739 Z"/>
  </g>
  <g id="bullet-char-template-10132" transform="scale(0.00048828125,-0.00048828125)">
   <path d="M 2015,739 L 1276,0 717,0 1260,543 174,543 174,936 1260,936 717,1481 1274,1481 2015,739 Z"/>
  </g>
  <g id="bullet-char-template-10007" transform="scale(0.00048828125,-0.00048828125)">
   <path d="M 0,-2 C -7,14 -16,27 -25,37 L 356,567 C 262,823 215,952 215,954 215,979 228,992 255,992 264,992 276,990 289,987 310,991 331,999 354,1012 L 381,999 492,748 772,1049 836,1024 860,1049 C 881,1039 901,1025 922,1006 886,937 835,863 770,784 769,783 710,716 594,584 L 774,223 C 774,196 753,168 711,139 L 727,119 C 717,90 699,76 672,76 641,76 570,178 457,381 L 164,-76 C 142,-110 111,-127 72,-127 30,-127 9,-110 8,-76 1,-67 -2,-52 -2,-32 -2,-23 -1,-13 0,-2 Z"/>
  </g>
  <g id="bullet-char-template-10004" transform="scale(0.00048828125,-0.00048828125)">
   <path d="M 285,-33 C 182,-33 111,30 74,156 52,228 41,333 41,471 41,549 55,616 82,672 116,743 169,778 240,778 293,778 328,747 346,684 L 369,508 C 377,444 397,411 428,410 L 1163,1116 C 1174,1127 1196,1133 1229,1133 1271,1133 1292,1118 1292,1087 L 1292,965 C 1292,929 1282,901 1262,881 L 442,47 C 390,-6 338,-33 285,-33 Z"/>
  </g>
  <g id="bullet-char-template-9679" transform="scale(0.00048828125,-0.00048828125)">
   <path d="M 813,0 C 632,0 489,54 383,161 276,268 223,411 223,592 223,773 276,916 383,1023 489,1130 632,1184 813,1184 992,1184 1136,1130 1245,1023 1353,916 1407,772 1407,592 1407,412 1353,268 1245,161 1136,54 992,0 813,0 Z"/>
  </g>
  <g id="bullet-char-template-8226" transform="scale(0.00048828125,-0.00048828125)">
   <path d="M 346,457 C 273,457 209,483 155,535 101,586 74,649 74,723 74,796 101,859 155,911 209,963 273,989 346,989 419,989 480,963 531,910 582,859 608,796 608,723 608,648 583,586 532,535 482,483 420,457 346,457 Z"/>
  </g>
  <g id="bullet-char-template-8211" transform="scale(0.00048828125,-0.00048828125)">
   <path d="M -4,459 L 1135,459 1135,606 -4,606 -4,459 Z"/>
  </g>
  <g id="bullet-char-template-61548" transform="scale(0.00048828125,-0.00048828125)">
   <path d="M 173,740 C 173,903 231,1043 346,1159 462,1274 601,1332 765,1332 928,1332 1067,1274 1183,1159 1299,1043 1357,903 1357,740 1357,577 1299,437 1183,322 1067,206 928,148 765,148 601,148 462,206 346,322 231,437 173,577 173,740 Z"/>
  </g>
 </defs>
 <defs class="TextEmbeddedBitmaps"/>
 <g class="SlideGroup">
  <g>
   <g id="container-id1">
    <g id="id1" class="Slide" clip-path="url(#presentation_clip_path)">
     <g class="Page">
      <g class="Graphic">
       <g id="id3">
        <rect class="BoundingBox" stroke="none" fill="none" x="5131" y="3631" width="9500" height="8500"/>
        <defs>
         <clipPath id="clip_path_1" clipPathUnits="userSpaceOnUse">
          <path d="M 5131,3631 L 14630,3631 14630,12130 5131,12130 5131,3631 Z"/>
         </clipPath>
        </defs>
        <g clip-path="url(#clip_path_1)">
         <path fill="rgb(1,2,2)" stroke="none" d="M 12770,9353 L 12517,9353 C 12386,9353 12279,9246 12279,9114 12279,8982 12386,8876 12517,8876 12517,8876 12517,8876 12517,8876 L 12769,8876 C 13420,8869 13949,8334 13949,7684 13949,7026 13414,6491 12756,6491 12727,6491 12697,6493 12672,6495 12608,6499 12546,6478 12498,6436 12450,6395 12421,6336 12417,6272 12348,5196 11448,4354 10369,4354 9645,4354 8989,4724 8613,5343 8575,5406 8510,5448 8437,5457 8364,5465 8291,5440 8240,5388 8115,5263 7949,5194 7773,5194 7409,5194 7114,5489 7114,5852 7114,5956 7137,6055 7184,6148 7220,6220 7217,6306 7176,6376 7135,6446 7061,6490 6980,6493 6339,6518 5837,7041 5837,7683 5837,8339 6369,8873 7023,8873 L 7269,8873 C 7400,8873 7507,8980 7507,9112 7507,9244 7400,9351 7269,9351 L 7023,9351 C 6106,9351 5360,8602 5360,7683 5360,6889 5908,6225 6655,6057 6643,5990 6637,5922 6637,5852 6637,5226 7146,4717 7773,4717 7981,4717 8180,4772 8354,4876 8831,4246 9566,3877 10369,3877 11624,3877 12681,4800 12869,6018 13737,6076 14426,6801 14426,7684 14426,8595 13684,9344 12772,9353 12771,9353 12771,9353 12770,9353 L 12770,9353 Z"/>
         <path fill="rgb(1,2,2)" stroke="none" d="M 7651,11595 C 7590,11595 7529,11572 7483,11525 7389,11432 7389,11281 7482,11188 L 8507,10162 7890,10162 C 7792,10162 7704,10102 7668,10012 7632,9921 7655,9817 7725,9750 L 9228,8323 C 9324,8232 9475,8236 9566,8332 9657,8427 9653,8578 9557,8669 L 8487,9685 9083,9685 C 9179,9685 9266,9743 9303,9832 9340,9921 9320,10023 9251,10092 L 7820,11525 C 7773,11572 7712,11595 7651,11595 L 7651,11595 Z"/>
         <path fill="rgb(1,2,2)" stroke="none" d="M 10083,10757 C 10022,10757 9961,10733 9914,10687 9821,10593 9821,10442 9914,10349 L 10938,9327 10321,9327 C 10224,9327 10136,9267 10100,9177 10064,9086 10086,8983 10157,8916 L 11660,7481 C 11755,7390 11906,7394 11997,7489 12088,7585 12085,7736 11989,7826 L 10917,8850 11514,8850 C 11611,8850 11698,8908 11735,8997 11772,9086 11751,9189 11683,9257 L 10251,10687 C 10205,10733 10144,10757 10083,10757 L 10083,10757 Z"/>
         <path fill="rgb(1,2,2)" stroke="none" d="M 8866,11902 C 8805,11902 8744,11878 8697,11832 8604,11739 8604,11587 8697,11494 L 9295,10898 C 9388,10804 9539,10805 9632,10898 9725,10991 9725,11142 9632,11235 L 9035,11832 C 8988,11879 8927,11902 8866,11902 L 8866,11902 Z"/>
         <path fill="rgb(1,2,2)" stroke="none" d="M 6695,11114 C 6634,11114 6573,11091 6526,11044 6433,10951 6433,10800 6526,10707 L 6903,10331 C 6996,10238 7147,10238 7241,10331 7334,10424 7334,10575 7240,10668 L 6864,11045 C 6817,11091 6756,11115 6695,11115 L 6695,11114 Z"/>
         <path fill="rgb(1,2,2)" stroke="none" d="M 10966,11448 C 10905,11448 10843,11425 10797,11378 10704,11285 10704,11134 10797,11041 L 12037,9802 C 12131,9709 12282,9709 12375,9802 12468,9896 12468,10047 12375,10140 L 11134,11379 C 11088,11425 11027,11449 10966,11449 L 10966,11448 Z"/>
        </g>
       </g>
      </g>
     </g>
    </g>
   </g>
  </g>
 </g>
</svg>