<?xml version="1.0" encoding="UTF-8"?>
<!DOCTYPE svg PUBLIC "-//W3C//DTD SVG 1.1//EN" "http://www.w3.org/Graphics/SVG/1.1/DTD/svg11.dtd">
<svg version="1.2" width="113.99mm" height="104.99mm" viewBox="4631 7531 11399 10499" preserveAspectRatio="xMidYMid" fill-rule="evenodd" stroke-width="28.222" stroke-linejoin="round" xmlns="http://www.w3.org/2000/svg" xmlns:ooo="http://xml.openoffice.org/svg/export" xmlns:xlink="http://www.w3.org/1999/xlink" xmlns:presentation="http://sun.com/xmlns/staroffice/presentation" xmlns:smil="http://www.w3.org/2001/SMIL20/" xmlns:anim="urn:oasis:names:tc:opendocument:xmlns:animation:1.0" xml:space="preserve">
 <defs class="ClipPathGroup">
  <clipPath id="presentation_clip_path" clipPathUnits="userSpaceOnUse">
   <rect x="4631" y="7531" width="11399" height="10499"/>
  </clipPath>
  <clipPath id="presentation_clip_path_shrink" clipPathUnits="userSpaceOnUse">
   <rect x="4642" y="7541" width="11377" height="10479"/>
  </clipPath>
 </defs>
 <defs class="TextShapeIndex">
  <g ooo:slide="id1" ooo:id-list="id3"/>
 </defs>
 <defs class="EmbeddedBulletChars">
  <g id="bullet-char-template-57356" transform="scale(0.00048828125,-0.00048828125)">
   <path d="M 580,1141 L 1163,571 580,0 -4,571 580,1141 Z"/>
  </g>
  <g id="bullet-char-template-57354" transform="scale(0.00048828125,-0.00048828125)">
   <path d="M 8,1128 L 1137,1128 1137,0 8,0 8,1128 Z"/>
  </g>
  <g id="bullet-char-template-10146" transform="scale(0.00048828125,-0.00048828125)">
   <path d="M 174,0 L 602,739 174,1481 1456,739 174,0 Z M 1358,739 L 309,1346 659,739 1358,739 Z"/>
  </g>
  <g id="bullet-char-template-10132" transform="scale(0.00048828125,-0.00048828125)">
   <path d="M 2015,739 L 1276,0 717,0 1260,543 174,543 174,936 1260,936 717,1481 1274,1481 2015,739 Z"/>
  </g>
  <g id="bullet-char-template-10007" transform="scale(0.00048828125,-0.00048828125)">
   <path d="M 0,-2 C -7,14 -16,27 -25,37 L 356,567 C 262,823 215,952 215,954 215,979 228,992 255,992 264,992 276,990 289,987 310,991 331,999 354,1012 L 381,999 492,748 772,1049 836,1024 860,1049 C 881,1039 901,1025 922,1006 886,937 835,863 770,784 769,783 710,716 594,584 L 774,223 C 774,196 753,168 711,139 L 727,119 C 717,90 699,76 672,76 641,76 570,178 457,381 L 164,-76 C 142,-110 111,-127 72,-127 30,-127 9,-110 8,-76 1,-67 -2,-52 -2,-32 -2,-23 -1,-13 0,-2 Z"/>
  </g>
  <g id="bullet-char-template-10004" transform="scale(0.00048828125,-0.00048828125)">
   <path d="M 285,-33 C 182,-33 111,30 74,156 52,228 41,333 41,471 41,549 55,616 82,672 116,743 169,778 240,778 293,778 328,747 346,684 L 369,508 C 377,444 397,411 428,410 L 1163,1116 C 1174,1127 1196,1133 1229,1133 1271,1133 1292,1118 1292,1087 L 1292,965 C 1292,929 1282,901 1262,881 L 442,47 C 390,-6 338,-33 285,-33 Z"/>
  </g>
  <g id="bullet-char-template-9679" transform="scale(0.00048828125,-0.00048828125)">
   <path d="M 813,0 C 632,0 489,54 383,161 276,268 223,411 223,592 223,773 276,916 383,1023 489,1130 632,1184 813,1184 992,1184 1136,1130 1245,1023 1353,916 1407,772 1407,592 1407,412 1353,268 1245,161 1136,54 992,0 813,0 Z"/>
  </g>
  <g id="bullet-char-template-8226" transform="scale(0.00048828125,-0.00048828125)">
   <path d="M 346,457 C 273,457 209,483 155,535 101,586 74,649 74,723 74,796 101,859 155,911 209,963 273,989 346,989 419,989 480,963 531,910 582,859 608,796 608,723 608,648 583,586 532,535 482,483 420,457 346,457 Z"/>
  </g>
  <g id="bullet-char-template-8211" transform="scale(0.00048828125,-0.00048828125)">
   <path d="M -4,459 L 1135,459 1135,606 -4,606 -4,459 Z"/>
  </g>
  <g id="bullet-char-template-61548" transform="scale(0.00048828125,-0.00048828125)">
   <path d="M 173,740 C 173,903 231,1043 346,1159 462,1274 601,1332 765,1332 928,1332 1067,1274 1183,1159 1299,1043 1357,903 1357,740 1357,577 1299,437 1183,322 1067,206 928,148 765,148 601,148 462,206 346,322 231,437 173,577 173,740 Z"/>
  </g>
 </defs>
 <defs class="TextEmbeddedBitmaps"/>
 <g class="SlideGroup">
  <g>
   <g id="container-id1">
    <g id="id1" class="Slide" clip-path="url(#presentation_clip_path)">
     <g class="Page">
      <g class="Graphic">
       <g id="id3">
        <rect class="BoundingBox" stroke="none" fill="none" x="4631" y="7531" width="11400" height="10500"/>
        <defs>
         <clipPath id="clip_path_1" clipPathUnits="userSpaceOnUse">
          <path d="M 4631,7531 L 16030,7531 16030,18030 4631,18030 4631,7531 Z"/>
         </clipPath>
        </defs>
        <g clip-path="url(#clip_path_1)">
         <path fill="rgb(1,2,2)" stroke="none" d="M 12463,14195 C 12380,14093 12396,13943 12498,13860 12947,13495 13205,12955 13205,12377 13205,11325 12348,10469 11296,10469 10322,10469 9507,11197 9399,12163 9385,12294 9267,12388 9136,12374 9005,12359 8910,12241 8925,12110 9060,10902 10079,9992 11296,9992 12612,9992 13682,11062 13682,12377 13682,13099 13360,13775 12799,14230 12755,14266 12702,14284 12649,14284 12579,14284 12511,14253 12463,14195 Z"/>
         <path fill="rgb(1,2,2)" stroke="none" d="M 11294,9608 C 11162,9608 11055,9501 11055,9369 L 11055,8081 C 11055,7949 11162,7842 11294,7842 11425,7842 11532,7949 11532,8081 L 11532,9369 C 11532,9501 11425,9608 11294,9608 L 11294,9608 Z"/>
         <path fill="rgb(1,2,2)" stroke="none" d="M 8288,12614 L 6999,12614 C 6867,12614 6761,12507 6761,12375 6761,12243 6867,12136 6999,12136 L 8288,12136 C 8419,12136 8526,12243 8526,12375 8526,12507 8419,12614 8288,12614 L 8288,12614 Z"/>
         <path fill="rgb(1,2,2)" stroke="none" d="M 15588,12614 L 14300,12614 C 14168,12614 14061,12507 14061,12375 14061,12243 14168,12136 14300,12136 L 15588,12136 C 15720,12136 15827,12243 15827,12375 15827,12507 15720,12614 15588,12614 L 15588,12614 Z"/>
         <path fill="rgb(1,2,2)" stroke="none" d="M 13237,10431 C 13144,10338 13144,10187 13237,10094 L 14162,9170 C 14255,9077 14406,9077 14499,9170 14592,9263 14592,9414 14499,9507 L 13575,10431 C 13528,10478 13467,10501 13406,10501 13345,10501 13284,10478 13237,10431 Z"/>
         <path fill="rgb(1,2,2)" stroke="none" d="M 9181,10501 C 9120,10501 9059,10478 9012,10431 L 8088,9507 C 7995,9414 7995,9263 8088,9170 8181,9077 8333,9077 8426,9170 L 9350,10094 C 9443,10187 9443,10338 9350,10431 9303,10478 9242,10501 9181,10501 L 9181,10501 Z"/>
         <path fill="rgb(1,2,2)" stroke="none" d="M 14162,15580 L 13237,14656 C 13144,14563 13144,14412 13237,14319 13331,14225 13482,14225 13575,14319 L 14499,15243 C 14592,15336 14592,15487 14499,15580 14452,15627 14391,15650 14330,15650 14269,15650 14208,15627 14162,15580 Z"/>
         <path fill="rgb(1,2,2)" stroke="none" d="M 6521,17862 C 5603,17856 4858,17107 4858,16192 4858,15397 5406,14732 6153,14563 6141,14497 6135,14428 6135,14359 6135,13733 6644,13223 7271,13223 7479,13223 7678,13279 7852,13383 8329,12753 9064,12383 9867,12383 11122,12383 12179,13308 12367,14525 13235,14584 13924,15309 13924,16192 13924,17104 13182,17853 12270,17862 L 6521,17862 Z M 7271,13701 C 6907,13701 6612,13996 6612,14359 6612,14463 6635,14562 6682,14654 6718,14727 6715,14813 6674,14883 6633,14953 6559,14997 6478,15000 5837,15025 5335,15549 5335,16192 5335,16845 5868,17381 6523,17385 L 12268,17385 C 12917,17378 13447,16843 13447,16192 13447,15534 12912,14999 12254,14999 12229,14999 12202,15000 12170,15002 12107,15006 12044,14985 11996,14944 11948,14902 11919,14843 11915,14779 11846,13703 10946,12861 9867,12861 9143,12861 8487,13231 8111,13850 8073,13913 8008,13955 7935,13964 7862,13972 7789,13947 7738,13895 7613,13770 7447,13701 7271,13701 L 7271,13701 Z"/>
        </g>
       </g>
      </g>
     </g>
    </g>
   </g>
  </g>
 </g>
</svg>