<?xml version="1.0" encoding="UTF-8"?>
<!DOCTYPE svg PUBLIC "-//W3C//DTD SVG 1.1//EN" "http://www.w3.org/Graphics/SVG/1.1/DTD/svg11.dtd">
<svg version="1.2" width="50mm" height="46.1mm" viewBox="0 0 5000 4610" preserveAspectRatio="xMidYMid" fill-rule="evenodd" stroke-width="28.222" stroke-linejoin="round" xmlns="http://www.w3.org/2000/svg" xmlns:ooo="http://xml.openoffice.org/svg/export" xmlns:xlink="http://www.w3.org/1999/xlink" xmlns:presentation="http://sun.com/xmlns/staroffice/presentation" xmlns:smil="http://www.w3.org/2001/SMIL20/" xmlns:anim="urn:oasis:names:tc:opendocument:xmlns:animation:1.0" xml:space="preserve">
 <defs class="ClipPathGroup">
  <clipPath id="presentation_clip_path" clipPathUnits="userSpaceOnUse">
   <rect x="0" y="0" width="5000" height="4610"/>
  </clipPath>
  <clipPath id="presentation_clip_path_shrink" clipPathUnits="userSpaceOnUse">
   <rect x="5" y="4" width="4990" height="4601"/>
  </clipPath>
 </defs>
 <defs class="TextShapeIndex">
  <g ooo:slide="id1" ooo:id-list="id3 id4 id5 id6 id7 id8 id9 id10 id11"/>
 </defs>
 <defs class="EmbeddedBulletChars">
  <g id="bullet-char-template(57356)" transform="scale(0.00048828125,-0.00048828125)">
   <path d="M 580,1141 L 1163,571 580,0 -4,571 580,1141 Z"/>
  </g>
  <g id="bullet-char-template(57354)" transform="scale(0.00048828125,-0.00048828125)">
   <path d="M 8,1128 L 1137,1128 1137,0 8,0 8,1128 Z"/>
  </g>
  <g id="bullet-char-template(10146)" transform="scale(0.00048828125,-0.00048828125)">
   <path d="M 174,0 L 602,739 174,1481 1456,739 174,0 Z M 1358,739 L 309,1346 659,739 1358,739 Z"/>
  </g>
  <g id="bullet-char-template(10132)" transform="scale(0.00048828125,-0.00048828125)">
   <path d="M 2015,739 L 1276,0 717,0 1260,543 174,543 174,936 1260,936 717,1481 1274,1481 2015,739 Z"/>
  </g>
  <g id="bullet-char-template(10007)" transform="scale(0.00048828125,-0.00048828125)">
   <path d="M 0,-2 C -7,14 -16,27 -25,37 L 356,567 C 262,823 215,952 215,954 215,979 228,992 255,992 264,992 276,990 289,987 310,991 331,999 354,1012 L 381,999 492,748 772,1049 836,1024 860,1049 C 881,1039 901,1025 922,1006 886,937 835,863 770,784 769,783 710,716 594,584 L 774,223 C 774,196 753,168 711,139 L 727,119 C 717,90 699,76 672,76 641,76 570,178 457,381 L 164,-76 C 142,-110 111,-127 72,-127 30,-127 9,-110 8,-76 1,-67 -2,-52 -2,-32 -2,-23 -1,-13 0,-2 Z"/>
  </g>
  <g id="bullet-char-template(10004)" transform="scale(0.00048828125,-0.00048828125)">
   <path d="M 285,-33 C 182,-33 111,30 74,156 52,228 41,333 41,471 41,549 55,616 82,672 116,743 169,778 240,778 293,778 328,747 346,684 L 369,508 C 377,444 397,411 428,410 L 1163,1116 C 1174,1127 1196,1133 1229,1133 1271,1133 1292,1118 1292,1087 L 1292,965 C 1292,929 1282,901 1262,881 L 442,47 C 390,-6 338,-33 285,-33 Z"/>
  </g>
  <g id="bullet-char-template(9679)" transform="scale(0.00048828125,-0.00048828125)">
   <path d="M 813,0 C 632,0 489,54 383,161 276,268 223,411 223,592 223,773 276,916 383,1023 489,1130 632,1184 813,1184 992,1184 1136,1130 1245,1023 1353,916 1407,772 1407,592 1407,412 1353,268 1245,161 1136,54 992,0 813,0 Z"/>
  </g>
  <g id="bullet-char-template(8226)" transform="scale(0.00048828125,-0.00048828125)">
   <path d="M 346,457 C 273,457 209,483 155,535 101,586 74,649 74,723 74,796 101,859 155,911 209,963 273,989 346,989 419,989 480,963 531,910 582,859 608,796 608,723 608,648 583,586 532,535 482,483 420,457 346,457 Z"/>
  </g>
  <g id="bullet-char-template(8211)" transform="scale(0.00048828125,-0.00048828125)">
   <path d="M -4,459 L 1135,459 1135,606 -4,606 -4,459 Z"/>
  </g>
  <g id="bullet-char-template(61548)" transform="scale(0.00048828125,-0.00048828125)">
   <path d="M 173,740 C 173,903 231,1043 346,1159 462,1274 601,1332 765,1332 928,1332 1067,1274 1183,1159 1299,1043 1357,903 1357,740 1357,577 1299,437 1183,322 1067,206 928,148 765,148 601,148 462,206 346,322 231,437 173,577 173,740 Z"/>
  </g>
 </defs>
 <defs class="TextEmbeddedBitmaps"/>
 <g class="SlideGroup">
  <g>
   <g id="container-id1">
    <g id="id1" class="Slide" clip-path="url(#presentation_clip_path)">
     <g class="Page">
      <g class="com.sun.star.drawing.PolyPolygonShape">
       <g id="id3">
        <rect class="BoundingBox" stroke="none" fill="none" x="0" y="0" width="5001" height="4611"/>
       </g>
      </g>
      <g class="com.sun.star.drawing.ClosedBezierShape">
       <g id="id4">
        <rect class="BoundingBox" stroke="none" fill="none" x="1882" y="1080" width="2089" height="1886"/>
        <path fill="rgb(1,2,2)" stroke="none" d="M 3435,2926 C 3399,2881 3406,2815 3451,2779 3647,2619 3761,2381 3761,2128 3761,1666 3385,1290 2923,1290 2496,1290 2139,1610 2091,2034 2085,2091 2033,2133 1976,2126 1918,2120 1877,2068 1883,2010 1943,1480 2390,1080 2923,1080 3500,1080 3970,1550 3970,2128 3970,2444 3829,2742 3583,2941 3563,2957 3540,2965 3517,2965 3486,2965 3456,2951 3435,2926 Z"/>
       </g>
      </g>
      <g class="com.sun.star.drawing.ClosedBezierShape">
       <g id="id5">
        <rect class="BoundingBox" stroke="none" fill="none" x="2817" y="136" width="211" height="778"/>
        <path fill="rgb(1,2,2)" stroke="none" d="M 2922,912 C 2864,912 2817,865 2817,807 L 2817,242 C 2817,184 2864,137 2922,137 2980,137 3027,184 3027,242 L 3027,807 C 3027,865 2980,912 2922,912 Z"/>
       </g>
      </g>
      <g class="com.sun.star.drawing.ClosedBezierShape">
       <g id="id6">
        <rect class="BoundingBox" stroke="none" fill="none" x="934" y="2021" width="776" height="212"/>
        <path fill="rgb(1,2,2)" stroke="none" d="M 1604,2232 L 1039,2232 C 981,2232 934,2185 934,2127 934,2069 981,2022 1039,2022 L 1604,2022 C 1662,2022 1709,2069 1709,2127 1709,2185 1662,2232 1604,2232 Z"/>
       </g>
      </g>
      <g class="com.sun.star.drawing.ClosedBezierShape">
       <g id="id7">
        <rect class="BoundingBox" stroke="none" fill="none" x="4135" y="2021" width="777" height="212"/>
        <path fill="rgb(1,2,2)" stroke="none" d="M 4806,2232 L 4240,2232 C 4183,2232 4135,2185 4135,2127 4135,2069 4183,2022 4240,2022 L 4806,2022 C 4864,2022 4910,2069 4910,2127 4910,2185 4864,2232 4806,2232 Z"/>
       </g>
      </g>
      <g class="com.sun.star.drawing.ClosedBezierShape">
       <g id="id8">
        <rect class="BoundingBox" stroke="none" fill="none" x="3743" y="689" width="617" height="617"/>
        <path fill="rgb(1,2,2)" stroke="none" d="M 3774,1273 C 3733,1233 3733,1166 3774,1126 L 4180,720 C 4221,679 4287,679 4328,720 4369,761 4369,827 4328,868 L 3923,1273 C 3902,1294 3875,1304 3849,1304 3821,1304 3795,1294 3774,1273 Z"/>
       </g>
      </g>
      <g class="com.sun.star.drawing.ClosedBezierShape">
       <g id="id9">
        <rect class="BoundingBox" stroke="none" fill="none" x="1485" y="689" width="617" height="617"/>
        <path fill="rgb(1,2,2)" stroke="none" d="M 1996,1304 C 1969,1304 1942,1294 1922,1273 L 1516,868 C 1475,827 1475,761 1516,720 1557,679 1624,679 1664,720 L 2070,1126 C 2111,1166 2111,1233 2070,1273 2049,1294 2023,1304 1996,1304 Z"/>
       </g>
      </g>
      <g class="com.sun.star.drawing.ClosedBezierShape">
       <g id="id10">
        <rect class="BoundingBox" stroke="none" fill="none" x="3743" y="2949" width="617" height="617"/>
        <path fill="rgb(1,2,2)" stroke="none" d="M 4180,3534 L 3774,3128 C 3733,3087 3733,3021 3774,2980 3816,2939 3882,2939 3923,2980 L 4328,3386 C 4369,3427 4369,3493 4328,3534 4307,3555 4281,3565 4254,3565 4227,3565 4200,3555 4180,3534 Z"/>
       </g>
      </g>
      <g class="com.sun.star.drawing.ClosedBezierShape">
       <g id="id11">
        <rect class="BoundingBox" stroke="none" fill="none" x="99" y="2130" width="3979" height="2407"/>
        <path fill="rgb(1,2,2)" stroke="none" d="M 829,4536 C 426,4533 100,4204 100,3803 100,3453 340,3162 668,3087 662,3058 660,3028 660,2998 660,2723 883,2499 1158,2499 1249,2499 1336,2523 1413,2569 1622,2293 1944,2130 2297,2130 2847,2130 3311,2536 3393,3071 3774,3097 4076,3415 4076,3803 4076,4203 3751,4532 3351,4536 L 829,4536 Z M 1158,2709 C 998,2709 869,2838 869,2998 869,3043 879,3087 900,3127 915,3159 914,3197 896,3228 878,3259 846,3278 810,3279 529,3290 309,3520 309,3803 309,4089 543,4324 830,4326 L 3350,4326 C 3634,4323 3867,4088 3867,3803 3867,3514 3632,3279 3344,3279 3333,3279 3321,3279 3307,3280 3279,3282 3251,3273 3230,3255 3209,3236 3197,3210 3195,3182 3165,2710 2770,2340 2297,2340 1979,2340 1691,2502 1527,2774 1510,2802 1481,2820 1449,2824 1417,2828 1385,2817 1363,2794 1308,2739 1235,2709 1158,2709 Z"/>
       </g>
      </g>
     </g>
    </g>
   </g>
  </g>
 </g>
</svg>