<?xml version="1.0" encoding="UTF-8"?>
<!DOCTYPE svg PUBLIC "-//W3C//DTD SVG 1.1//EN" "http://www.w3.org/Graphics/SVG/1.1/DTD/svg11.dtd">
<svg version="1.2" width="103.99mm" height="91.99mm" viewBox="4831 2131 10399 9199" preserveAspectRatio="xMidYMid" fill-rule="evenodd" stroke-width="28.222" stroke-linejoin="round" xmlns="http://www.w3.org/2000/svg" xmlns:ooo="http://xml.openoffice.org/svg/export" xmlns:xlink="http://www.w3.org/1999/xlink" xmlns:presentation="http://sun.com/xmlns/staroffice/presentation" xmlns:smil="http://www.w3.org/2001/SMIL20/" xmlns:anim="urn:oasis:names:tc:opendocument:xmlns:animation:1.0" xml:space="preserve">
 <defs class="ClipPathGroup">
  <clipPath id="presentation_clip_path" clipPathUnits="userSpaceOnUse">
   <rect x="4831" y="2131" width="10399" height="9199"/>
  </clipPath>
  <clipPath id="presentation_clip_path_shrink" clipPathUnits="userSpaceOnUse">
   <rect x="4841" y="2140" width="10379" height="9181"/>
  </clipPath>
 </defs>
 <defs class="TextShapeIndex">
  <g ooo:slide="id1" ooo:id-list="id3"/>
 </defs>
 <defs class="EmbeddedBulletChars">
  <g id="bullet-char-template-57356" transform="scale(0.00048828125,-0.00048828125)">
   <path d="M 580,1141 L 1163,571 580,0 -4,571 580,1141 Z"/>
  </g>
  <g id="bullet-char-template-57354" transform="scale(0.00048828125,-0.00048828125)">
   <path d="M 8,1128 L 1137,1128 1137,0 8,0 8,1128 Z"/>
  </g>
  <g id="bullet-char-template-10146" transform="scale(0.00048828125,-0.00048828125)">
   <path d="M 174,0 L 602,739 174,1481 1456,739 174,0 Z M 1358,739 L 309,1346 659,739 1358,739 Z"/>
  </g>
  <g id="bullet-char-template-10132" transform="scale(0.00048828125,-0.00048828125)">
   <path d="M 2015,739 L 1276,0 717,0 1260,543 174,543 174,936 1260,936 717,1481 1274,1481 2015,739 Z"/>
  </g>
  <g id="bullet-char-template-10007" transform="scale(0.00048828125,-0.00048828125)">
   <path d="M 0,-2 C -7,14 -16,27 -25,37 L 356,567 C 262,823 215,952 215,954 215,979 228,992 255,992 264,992 276,990 289,987 310,991 331,999 354,1012 L 381,999 492,748 772,1049 836,1024 860,1049 C 881,1039 901,1025 922,1006 886,937 835,863 770,784 769,783 710,716 594,584 L 774,223 C 774,196 753,168 711,139 L 727,119 C 717,90 699,76 672,76 641,76 570,178 457,381 L 164,-76 C 142,-110 111,-127 72,-127 30,-127 9,-110 8,-76 1,-67 -2,-52 -2,-32 -2,-23 -1,-13 0,-2 Z"/>
  </g>
  <g id="bullet-char-template-10004" transform="scale(0.00048828125,-0.00048828125)">
   <path d="M 285,-33 C 182,-33 111,30 74,156 52,228 41,333 41,471 41,549 55,616 82,672 116,743 169,778 240,778 293,778 328,747 346,684 L 369,508 C 377,444 397,411 428,410 L 1163,1116 C 1174,1127 1196,1133 1229,1133 1271,1133 1292,1118 1292,1087 L 1292,965 C 1292,929 1282,901 1262,881 L 442,47 C 390,-6 338,-33 285,-33 Z"/>
  </g>
  <g id="bullet-char-template-9679" transform="scale(0.00048828125,-0.00048828125)">
   <path d="M 813,0 C 632,0 489,54 383,161 276,268 223,411 223,592 223,773 276,916 383,1023 489,1130 632,1184 813,1184 992,1184 1136,1130 1245,1023 1353,916 1407,772 1407,592 1407,412 1353,268 1245,161 1136,54 992,0 813,0 Z"/>
  </g>
  <g id="bullet-char-template-8226" transform="scale(0.00048828125,-0.00048828125)">
   <path d="M 346,457 C 273,457 209,483 155,535 101,586 74,649 74,723 74,796 101,859 155,911 209,963 273,989 346,989 419,989 480,963 531,910 582,859 608,796 608,723 608,648 583,586 532,535 482,483 420,457 346,457 Z"/>
  </g>
  <g id="bullet-char-template-8211" transform="scale(0.00048828125,-0.00048828125)">
   <path d="M -4,459 L 1135,459 1135,606 -4,606 -4,459 Z"/>
  </g>
  <g id="bullet-char-template-61548" transform="scale(0.00048828125,-0.00048828125)">
   <path d="M 173,740 C 173,903 231,1043 346,1159 462,1274 601,1332 765,1332 928,1332 1067,1274 1183,1159 1299,1043 1357,903 1357,740 1357,577 1299,437 1183,322 1067,206 928,148 765,148 601,148 462,206 346,322 231,437 173,577 173,740 Z"/>
  </g>
 </defs>
 <defs class="TextEmbeddedBitmaps"/>
 <g class="SlideGroup">
  <g>
   <g id="container-id1">
    <g id="id1" class="Slide" clip-path="url(#presentation_clip_path)">
     <g class="Page">
      <g class="Graphic">
       <g id="id3">
        <rect class="BoundingBox" stroke="none" fill="none" x="4831" y="2131" width="10400" height="9200"/>
        <defs>
         <clipPath id="clip_path_1" clipPathUnits="userSpaceOnUse">
          <path d="M 4831,2131 L 15230,2131 15230,11330 4831,11330 4831,2131 Z"/>
         </clipPath>
        </defs>
        <g clip-path="url(#clip_path_1)">
         <path fill="rgb(1,2,2)" stroke="none" d="M 13180,8354 L 12900,8354 12900,8354 6809,8352 C 5792,8352 4965,7522 4965,6502 4965,5622 5573,4886 6400,4699 6387,4625 6380,4550 6380,4473 6380,3778 6945,3213 7640,3213 7870,3213 8091,3275 8284,3390 8813,2691 9628,2282 10518,2282 11909,2282 13082,3306 13290,4656 14253,4721 15017,5525 15017,6504 15017,7514 14194,8344 13183,8354 13182,8354 13181,8354 13180,8354 L 13180,8354 Z M 12900,7825 L 13179,7825 C 13901,7817 14488,7225 14488,6504 14488,5774 13894,5181 13164,5181 13133,5181 13100,5183 13071,5185 13001,5190 12932,5167 12879,5120 12826,5074 12794,5008 12789,4938 12713,3745 11715,2811 10518,2811 9716,2811 8988,3221 8571,3908 8529,3978 8457,4024 8376,4034 8296,4043 8215,4015 8157,3958 8019,3819 7835,3742 7640,3742 7237,3742 6909,4070 6909,4473 6909,4588 6935,4698 6987,4800 7027,4880 7024,4976 6978,5053 6933,5131 6851,5180 6761,5183 6050,5211 5494,5791 5494,6502 5494,7230 6084,7823 6809,7823 L 7081,7823 12900,7825 Z"/>
         <path fill="rgb(1,2,2)" stroke="none" d="M 9064,11180 C 8996,11180 8928,11155 8876,11103 8773,10999 8773,10832 8877,10729 L 9539,10067 C 9643,9964 9810,9964 9913,10067 10017,10171 10016,10338 9913,10441 L 9251,11103 C 9199,11155 9131,11181 9064,11181 L 9064,11180 Z"/>
         <path fill="rgb(1,2,2)" stroke="none" d="M 6762,9673 C 6695,9673 6627,9647 6575,9595 6472,9492 6472,9324 6575,9221 L 6993,8804 C 7096,8700 7264,8700 7367,8804 7470,8907 7470,9075 7367,9178 L 6949,9595 C 6897,9647 6830,9673 6762,9673 L 6762,9673 Z"/>
         <path fill="rgb(1,2,2)" stroke="none" d="M 10439,9673 C 10371,9673 10304,9647 10252,9595 10149,9492 10149,9324 10252,9221 L 10670,8804 C 10773,8700 10941,8700 11044,8804 11147,8907 11147,9075 11044,9178 L 10626,9595 C 10574,9647 10507,9673 10439,9673 L 10439,9673 Z"/>
         <path fill="rgb(1,2,2)" stroke="none" d="M 11630,10338 C 11562,10338 11494,10312 11442,10261 11339,10157 11339,9990 11443,9887 L 12527,8804 C 12630,8700 12798,8700 12901,8804 13004,8907 13004,9075 12901,9178 L 11816,10261 C 11765,10313 11697,10338 11630,10338 L 11630,10338 Z"/>
         <path fill="rgb(1,2,2)" stroke="none" d="M 7635,10629 C 7567,10629 7500,10603 7448,10552 7345,10448 7345,10281 7448,10178 L 8824,8804 C 8927,8700 9094,8700 9198,8804 9301,8907 9301,9075 9197,9178 L 7822,10552 C 7771,10604 7703,10629 7635,10629 L 7635,10629 Z"/>
        </g>
       </g>
      </g>
     </g>
    </g>
   </g>
  </g>
 </g>
</svg>