<?xml version="1.0" encoding="UTF-8"?>
<!DOCTYPE svg PUBLIC "-//W3C//DTD SVG 1.1//EN" "http://www.w3.org/Graphics/SVG/1.1/DTD/svg11.dtd">
<svg version="1.2" width="50mm" height="44.2mm" viewBox="0 0 5000 4420" preserveAspectRatio="xMidYMid" fill-rule="evenodd" stroke-width="28.222" stroke-linejoin="round" xmlns="http://www.w3.org/2000/svg" xmlns:ooo="http://xml.openoffice.org/svg/export" xmlns:xlink="http://www.w3.org/1999/xlink" xmlns:presentation="http://sun.com/xmlns/staroffice/presentation" xmlns:smil="http://www.w3.org/2001/SMIL20/" xmlns:anim="urn:oasis:names:tc:opendocument:xmlns:animation:1.0" xml:space="preserve">
 <defs class="ClipPathGroup">
  <clipPath id="presentation_clip_path" clipPathUnits="userSpaceOnUse">
   <rect x="0" y="0" width="5000" height="4420"/>
  </clipPath>
  <clipPath id="presentation_clip_path_shrink" clipPathUnits="userSpaceOnUse">
   <rect x="5" y="4" width="4990" height="4412"/>
  </clipPath>
 </defs>
 <defs class="TextShapeIndex">
  <g ooo:slide="id1" ooo:id-list="id3 id4 id5 id6 id7 id8 id9"/>
 </defs>
 <defs class="EmbeddedBulletChars">
  <g id="bullet-char-template(57356)" transform="scale(0.00048828125,-0.00048828125)">
   <path d="M 580,1141 L 1163,571 580,0 -4,571 580,1141 Z"/>
  </g>
  <g id="bullet-char-template(57354)" transform="scale(0.00048828125,-0.00048828125)">
   <path d="M 8,1128 L 1137,1128 1137,0 8,0 8,1128 Z"/>
  </g>
  <g id="bullet-char-template(10146)" transform="scale(0.00048828125,-0.00048828125)">
   <path d="M 174,0 L 602,739 174,1481 1456,739 174,0 Z M 1358,739 L 309,1346 659,739 1358,739 Z"/>
  </g>
  <g id="bullet-char-template(10132)" transform="scale(0.00048828125,-0.00048828125)">
   <path d="M 2015,739 L 1276,0 717,0 1260,543 174,543 174,936 1260,936 717,1481 1274,1481 2015,739 Z"/>
  </g>
  <g id="bullet-char-template(10007)" transform="scale(0.00048828125,-0.00048828125)">
   <path d="M 0,-2 C -7,14 -16,27 -25,37 L 356,567 C 262,823 215,952 215,954 215,979 228,992 255,992 264,992 276,990 289,987 310,991 331,999 354,1012 L 381,999 492,748 772,1049 836,1024 860,1049 C 881,1039 901,1025 922,1006 886,937 835,863 770,784 769,783 710,716 594,584 L 774,223 C 774,196 753,168 711,139 L 727,119 C 717,90 699,76 672,76 641,76 570,178 457,381 L 164,-76 C 142,-110 111,-127 72,-127 30,-127 9,-110 8,-76 1,-67 -2,-52 -2,-32 -2,-23 -1,-13 0,-2 Z"/>
  </g>
  <g id="bullet-char-template(10004)" transform="scale(0.00048828125,-0.00048828125)">
   <path d="M 285,-33 C 182,-33 111,30 74,156 52,228 41,333 41,471 41,549 55,616 82,672 116,743 169,778 240,778 293,778 328,747 346,684 L 369,508 C 377,444 397,411 428,410 L 1163,1116 C 1174,1127 1196,1133 1229,1133 1271,1133 1292,1118 1292,1087 L 1292,965 C 1292,929 1282,901 1262,881 L 442,47 C 390,-6 338,-33 285,-33 Z"/>
  </g>
  <g id="bullet-char-template(9679)" transform="scale(0.00048828125,-0.00048828125)">
   <path d="M 813,0 C 632,0 489,54 383,161 276,268 223,411 223,592 223,773 276,916 383,1023 489,1130 632,1184 813,1184 992,1184 1136,1130 1245,1023 1353,916 1407,772 1407,592 1407,412 1353,268 1245,161 1136,54 992,0 813,0 Z"/>
  </g>
  <g id="bullet-char-template(8226)" transform="scale(0.00048828125,-0.00048828125)">
   <path d="M 346,457 C 273,457 209,483 155,535 101,586 74,649 74,723 74,796 101,859 155,911 209,963 273,989 346,989 419,989 480,963 531,910 582,859 608,796 608,723 608,648 583,586 532,535 482,483 420,457 346,457 Z"/>
  </g>
  <g id="bullet-char-template(8211)" transform="scale(0.00048828125,-0.00048828125)">
   <path d="M -4,459 L 1135,459 1135,606 -4,606 -4,459 Z"/>
  </g>
  <g id="bullet-char-template(61548)" transform="scale(0.00048828125,-0.00048828125)">
   <path d="M 173,740 C 173,903 231,1043 346,1159 462,1274 601,1332 765,1332 928,1332 1067,1274 1183,1159 1299,1043 1357,903 1357,740 1357,577 1299,437 1183,322 1067,206 928,148 765,148 601,148 462,206 346,322 231,437 173,577 173,740 Z"/>
  </g>
 </defs>
 <defs class="TextEmbeddedBitmaps"/>
 <g class="SlideGroup">
  <g>
   <g id="container-id1">
    <g id="id1" class="Slide" clip-path="url(#presentation_clip_path)">
     <g class="Page">
      <g class="com.sun.star.drawing.PolyPolygonShape">
       <g id="id3">
        <rect class="BoundingBox" stroke="none" fill="none" x="0" y="0" width="5001" height="4421"/>
       </g>
      </g>
      <g class="com.sun.star.drawing.ClosedBezierShape">
       <g id="id4">
        <rect class="BoundingBox" stroke="none" fill="none" x="64" y="72" width="4835" height="2919"/>
        <path fill="rgb(1,2,2)" stroke="none" d="M 4014,2990 L 3880,2990 951,2989 C 462,2989 65,2590 65,2100 65,1678 357,1324 755,1234 748,1198 745,1162 745,1125 745,791 1016,520 1351,520 1461,520 1568,550 1660,605 1914,269 2306,73 2734,73 3403,73 3967,565 4067,1213 4530,1244 4897,1631 4897,2101 4897,2586 4502,2985 4015,2990 4015,2990 4015,2990 4014,2990 Z M 3880,2736 L 4014,2736 C 4361,2732 4643,2448 4643,2101 4643,1751 4357,1465 4007,1465 3992,1465 3976,1467 3962,1467 3928,1470 3895,1459 3869,1436 3844,1414 3829,1382 3826,1349 3790,776 3310,327 2734,327 2349,327 1999,524 1798,854 1778,887 1743,910 1704,914 1666,919 1627,905 1599,878 1533,811 1445,774 1351,774 1157,774 999,932 999,1125 999,1181 1012,1233 1037,1282 1056,1321 1055,1367 1032,1404 1011,1442 971,1465 928,1467 586,1480 319,1759 319,2100 319,2450 603,2735 951,2735 L 1082,2735 3880,2736 Z"/>
       </g>
      </g>
      <g class="com.sun.star.drawing.ClosedBezierShape">
       <g id="id5">
        <rect class="BoundingBox" stroke="none" fill="none" x="1907" y="3775" width="575" height="574"/>
        <path fill="rgb(1,2,2)" stroke="none" d="M 2035,4347 C 2002,4347 1970,4335 1944,4310 1895,4260 1895,4180 1945,4131 L 2264,3812 C 2314,3763 2394,3763 2444,3812 2494,3862 2493,3943 2444,3992 L 2125,4310 C 2100,4335 2067,4348 2035,4348 L 2035,4347 Z"/>
       </g>
      </g>
      <g class="com.sun.star.drawing.ClosedBezierShape">
       <g id="id6">
        <rect class="BoundingBox" stroke="none" fill="none" x="801" y="3168" width="457" height="457"/>
        <path fill="rgb(1,2,2)" stroke="none" d="M 928,3624 C 896,3624 863,3611 838,3586 789,3537 789,3456 838,3406 L 1039,3206 C 1089,3156 1170,3156 1219,3206 1269,3255 1269,3336 1219,3386 L 1018,3586 C 993,3611 961,3624 928,3624 Z"/>
       </g>
      </g>
      <g class="com.sun.star.drawing.ClosedBezierShape">
       <g id="id7">
        <rect class="BoundingBox" stroke="none" fill="none" x="2569" y="3168" width="457" height="457"/>
        <path fill="rgb(1,2,2)" stroke="none" d="M 2696,3624 C 2664,3624 2631,3611 2606,3586 2557,3537 2557,3456 2606,3406 L 2807,3206 C 2857,3156 2938,3156 2987,3206 3037,3255 3037,3336 2987,3386 L 2786,3586 C 2761,3611 2729,3624 2696,3624 Z"/>
       </g>
      </g>
      <g class="com.sun.star.drawing.ClosedBezierShape">
       <g id="id8">
        <rect class="BoundingBox" stroke="none" fill="none" x="3140" y="3168" width="778" height="777"/>
        <path fill="rgb(1,2,2)" stroke="none" d="M 3268,3943 C 3236,3943 3203,3930 3178,3906 3129,3856 3129,3776 3179,3726 L 3700,3206 C 3749,3156 3830,3156 3880,3206 3929,3255 3929,3336 3880,3386 L 3358,3906 C 3333,3931 3300,3943 3268,3943 Z"/>
       </g>
      </g>
      <g class="com.sun.star.drawing.ClosedBezierShape">
       <g id="id9">
        <rect class="BoundingBox" stroke="none" fill="none" x="1221" y="3168" width="917" height="917"/>
        <path fill="rgb(1,2,2)" stroke="none" d="M 1348,4083 C 1315,4083 1283,4070 1258,4046 1209,3996 1209,3916 1258,3866 L 1920,3206 C 1969,3156 2050,3156 2100,3206 2149,3255 2149,3336 2099,3386 L 1438,4046 C 1414,4071 1381,4083 1348,4083 Z"/>
       </g>
      </g>
     </g>
    </g>
   </g>
  </g>
 </g>
</svg>