<?xml version="1.0" encoding="UTF-8" standalone="no"?>
<!-- Created with Inkscape (http://www.inkscape.org/) -->

<svg
   xmlns:dc="http://purl.org/dc/elements/1.1/"
   xmlns:cc="http://creativecommons.org/ns#"
   xmlns:rdf="http://www.w3.org/1999/02/22-rdf-syntax-ns#"
   xmlns:svg="http://www.w3.org/2000/svg"
   xmlns="http://www.w3.org/2000/svg"
   xmlns:sodipodi="http://sodipodi.sourceforge.net/DTD/sodipodi-0.dtd"
   xmlns:inkscape="http://www.inkscape.org/namespaces/inkscape"
   width="210mm"
   height="297mm"
   viewBox="0 0 210 297"
   version="1.1"
   id="svg4658"
   inkscape:version="0.92.4 (unknown)"
   sodipodi:docname="brouillard.svg">
  <defs
     id="defs4652" />
  <sodipodi:namedview
     id="base"
     pagecolor="#ffffff"
     bordercolor="#666666"
     borderopacity="1.0"
     inkscape:pageopacity="0.0"
     inkscape:pageshadow="2"
     inkscape:zoom="0.35"
     inkscape:cx="400"
     inkscape:cy="560"
     inkscape:document-units="mm"
     inkscape:current-layer="layer1"
     showgrid="false"
     inkscape:window-width="1600"
     inkscape:window-height="871"
     inkscape:window-x="0"
     inkscape:window-y="0"
     inkscape:window-maximized="1" />
  <metadata
     id="metadata4655">
    <rdf:RDF>
      <cc:Work
         rdf:about="">
        <dc:format>image/svg+xml</dc:format>
        <dc:type
           rdf:resource="http://purl.org/dc/dcmitype/StillImage" />
        <dc:title></dc:title>
      </cc:Work>
    </rdf:RDF>
  </metadata>
  <g
     inkscape:label="Calque 1"
     inkscape:groupmode="layer"
     id="layer1">
    <path
       inkscape:connector-curvature="0"
       style="fill:#010202;stroke-width:0.26458332"
       d="m 130.17716,76.498202 h -2.80035 v 0 l -60.927932,-0.024 c -10.171086,0 -18.445903,-8.29768 -18.445903,-18.49707 0,-8.80436 6.0818,-16.16438 14.361268,-18.03609 -0.134617,-0.74055 -0.202184,-1.49657 -0.202184,-2.26447 0,-6.94608 5.650958,-12.59691 12.597038,-12.59691 2.307219,0 4.51858,0.61547 6.447658,1.76916 5.287036,-6.991564 13.444537,-11.086414 22.346975,-11.086414 13.91309,0 25.64066,10.246914 27.72259,23.750744 9.63133,0.64775 17.26832,8.68733 17.26832,18.47665 0,10.1061 -8.22754,18.40894 -18.34049,18.50816 -0.009,2.6e-4 -0.018,2.6e-4 -0.027,2.6e-4 z m -2.79829,-5.29269 h 2.78654 c 7.21776,-0.078 13.08756,-6.00427 13.08756,-13.21676 0,-7.29335 -5.93658,-13.2271 -13.23355,-13.2271 -0.31356,0 -0.64609,0.0201 -0.93017,0.0398 -0.70152,0.0512 -1.39528,-0.18423 -1.92535,-0.64802 -0.52993,-0.46355 -0.85331,-1.11932 -0.89839,-1.82187 -0.76534,-11.93181 -10.74158,-21.278529 -22.71178,-21.278529 -8.027038,0 -15.308106,4.103639 -19.476987,10.977349 -0.421931,0.69583 -1.140751,1.15885 -1.948842,1.25524 -0.807958,0.0953 -1.615678,-0.1845 -2.1894,-0.76145 -1.38131,-1.38906 -3.220747,-2.15389 -5.179404,-2.15389 -4.028176,0 -7.305358,3.27708 -7.305358,7.30525 0,1.14954 0.260827,2.25102 0.77515,3.27396 0.404098,0.80356 0.37219,1.75752 -0.08464,2.5324 -0.456803,0.77462 -1.276006,1.26453 -2.174796,1.29993 -7.107322,0.28162 -12.674811,6.0774 -12.674811,13.1953 0,7.28149 5.90093,13.2054 13.154236,13.2054 h 2.720764 z"
       id="path132" />
    <path
       inkscape:connector-curvature="0"
       style="fill:#010202;stroke-width:0.26458332"
       d="m 124.10376,98.963762 c 0,0 0,0 -0.003,0 l -14.91589,-0.006 c -1.46116,0 -2.64493,-1.18308 -2.64403,-2.64448 0,-1.46063 1.18546,-2.64086 2.64583,-2.64086 0,0 0,0 0.003,0 l 14.91588,0.008 c 1.46117,0 2.64494,1.18205 2.64404,2.64345 0,1.46063 -1.18547,2.63983 -2.64583,2.63983 z"
       id="path134" />
    <path
       inkscape:connector-curvature="0"
       style="fill:#010202;stroke-width:0.26458332"
       d="m 98.869121,98.963762 c 0,0 0,0 0,0 l -26.303817,-0.006 c -1.461161,0 -2.64533,-1.18229 -2.644801,-2.64371 0,-1.46087 1.185068,-2.64163 2.645833,-2.64163 0,0 0,0 0,0 l 26.303817,0.008 c 1.461157,0 2.645327,1.18126 2.644797,2.64268 0,1.4609 -1.18507,2.6406 -2.645829,2.6406 z"
       id="path136" />
    <path
       inkscape:connector-curvature="0"
       style="fill:#010202;stroke-width:0.26458332"
       d="m 130.25532,87.851262 c -2.7e-4,0 0,0 0,0 l -34.274417,-0.006 c -1.461268,0 -2.645437,-1.18229 -2.64504,-2.64345 0,-1.4609 1.184937,-2.64189 2.645833,-2.64189 2.65e-4,0 0,0 0,0 l 34.274394,0.008 c 1.46129,0 2.64546,1.18126 2.64506,2.64242 0,1.4609 -1.18493,2.64086 -2.64583,2.64086 z"
       id="path138" />
    <path
       inkscape:connector-curvature="0"
       style="fill:#010202;stroke-width:0.26458332"
       d="m 86.069902,87.851262 c 0,0 0,0 -0.0026,0 l -18.928556,-0.006 c -1.461161,0 -2.645185,-1.18282 -2.64441,-2.64395 7.94e-4,-1.4609 1.185339,-2.64139 2.645839,-2.64139 0,0 0,0 0.0026,0 l 18.928582,0.008 c 1.461135,0 2.645172,1.18179 2.644405,2.64292 0,1.4609 -1.185333,2.64036 -2.645833,2.64036 z"
       id="path140" />
  </g>
</svg>
